<?xml version="1.0" encoding="utf-8"?>
<!-- Generator: Adobe Illustrator 16.0.0, SVG Export Plug-In . SVG Version: 6.00 Build 0)  -->
<!DOCTYPE svg PUBLIC "-//W3C//DTD SVG 1.1//EN" "http://www.w3.org/Graphics/SVG/1.1/DTD/svg11.dtd">
<svg version="1.1" id="Layer_1" xmlns="http://www.w3.org/2000/svg" xmlns:xlink="http://www.w3.org/1999/xlink" x="0px" y="0px"
	 width="500px" height="220px" viewBox="0 0 500 220" enable-background="new 0 0 500 220" xml:space="preserve">
<path fill="#005CA7" d="M14.98,145.107c0,0,70.399-122.1,70.708-122.604c2.537-4.154,3.914-5.287,6.539-6.895
	c2.607-1.598,4.254-2.433,6.759-3.106c1.901-0.511,8.028-1.408,9.999-1.405c2.719,0.003,8.421,0.965,10.986,1.864
	c1.886,0.661,5.266,1.937,7.587,3.92c2.326,1.988,6.056,6.958,7.576,9.612c17.332,30.225,69.081,119.671,69.081,119.671
	s-7.557,2.985-10.141,3.787c-4.14,1.281-12.663,3.147-16.985,3.423c-3.957,0.252-11.896-0.849-15.764-1.711
	c-3.353-0.747-9.761-3.354-12.83-4.89c-2.872-1.434-8.165-5.154-10.631-7.209c-2.708-2.255-7.439-7.55-9.531-10.385
	c-5.51-7.463-18.738-32.017-18.738-32.017s-14.167,25.818-20.243,33.481c-2.204,2.778-7.614,7.443-10.386,9.653
	c-2.597,2.073-8.26,5.626-11.244,7.089c-2.455,1.199-7.724,2.803-10.385,3.422c-3.566,0.828-10.887,1.515-14.542,1.709
	c-3.181,0.17-9.616-0.104-12.709-0.854"/>
<path fill="#1C8ECE" d="M325.945,123.588c-1.891,3.008-11.081,17.689-14.521,21.111c-2.992,2.975-6.792,5.253-10.43,6.84
	c-3.279,1.433-6.108,1.881-9.774,1.871c-4.976-0.014-10.631-2.113-14.664-4.478c-2.242-1.313-5.701-4.276-7.821-6.843
	c-1.357-1.649-3.303-5.494-4.398-7.331c-5.646-9.474-22.483-37.961-22.483-37.961s-6.834,12.098-9.072,16.162
	c-1.868,3.386-5.645,10.17-7.872,13.325c-2.348,3.331-5.444,6.687-7.022,8.22c-5.582,5.422-7.393,6.844-7.393,6.844l-31.037-52.79
	c0,0,29.273-50.54,38.281-66.216c1.997-3.474,4.932-5.826,8.31-7.822c3.517-2.075,8.352-4.653,15.641-4.725
	c6.242-0.062,13.482,1.955,18.572,5.865c4.721,3.625,6.786,8.845,8.639,12.058c5.499,9.554,22.156,38.125,22.156,38.125"/>
<path fill="#005CA7" d="M331.157,114.464l-34.719-55.676c0,0,11.516-19.919,20.524-35.597c1.996-3.474,4.929-5.825,8.308-7.82
	c3.518-2.076,8.353-4.654,15.641-4.726c6.242-0.062,13.483,1.955,18.573,5.865c4.721,3.624,6.786,8.844,8.639,12.057
	c5.499,9.554,22.156,38.125,22.156,38.125s14.689-27.458,21.34-35.354c2.605-3.094,8.557-8.182,12.223-10.59
	c3.655-2.405,9.926-5.652,13.522-6.843c4.121-1.366,9.672-2.453,12.953-2.955c2.091-0.321,4.609-0.832,8.429-0.671
	c4.37,0.183,10.693,1.467,15.093,3.054c5.35,1.933,11.181,5.377,11.181,5.377s-48.672,86.988-66.353,115.108
	c-1.889,3.006-4.581,8.309-8.02,11.729c-2.994,2.974-6.796,5.255-10.429,6.842c-3.279,1.431-6.11,1.88-9.777,1.87
	c-4.976-0.014-10.63-2.113-14.664-4.477c-2.24-1.313-5.698-4.276-7.817-6.844c-1.36-1.648-3.305-5.495-4.399-7.331
	c-5.648-9.474-22.485-37.961-22.485-37.961"/>
<g>
	<g>
		<path fill="#005CA7" d="M43.045,164.35c6.287,0,11.372,2.773,13.591,6.749v-3.514c0-1.109,0.832-1.941,1.849-1.941h8.136
			c1.017,0,1.849,0.832,1.849,1.941v40.772c0,1.017-0.832,1.849-1.849,1.849h-8.136c-1.017,0-1.849-0.832-1.849-1.849v-3.606
			c-2.312,3.976-7.396,6.749-13.683,6.749c-11.557,0-22.281-9.245-22.281-23.668C20.672,173.502,31.304,164.35,43.045,164.35z
			 M44.71,200.498c6.934,0,11.926-5.547,11.926-12.573c0-6.934-4.993-12.481-11.926-12.481c-6.842,0-12.019,5.548-12.019,12.481
			C32.691,194.951,37.868,200.498,44.71,200.498z"/>
		<path fill="#005CA7" d="M111.271,186.908c0-7.026-3.883-11.557-10.817-11.557c-6.749,0-11.187,4.622-11.187,11.557v21.541
			c0,1.018-0.925,1.757-1.941,1.757H79.19c-1.017,0-1.849-0.832-1.849-1.849v-40.772c0-1.109,0.832-1.941,1.849-1.941h8.136
			c1.017,0,1.941,0.74,1.941,1.757v3.513c2.588-3.605,7.673-6.563,14.792-6.563c11.834,0,19.138,8.32,19.138,19.322v24.777
			c0,1.018-0.924,1.757-1.941,1.757h-8.043c-1.017,0-1.941-0.739-1.941-1.757V186.908z"/>
		<path fill="#005CA7" d="M165.537,186.908c0-7.026-3.883-11.557-10.817-11.557c-6.749,0-11.187,4.622-11.187,11.557v21.541
			c0,1.018-0.925,1.757-1.941,1.757h-8.136c-1.017,0-1.849-0.832-1.849-1.849v-40.772c0-1.109,0.833-1.941,1.849-1.941h8.136
			c1.017,0,1.941,0.74,1.941,1.757v3.513c2.588-3.605,7.673-6.563,14.792-6.563c11.834,0,19.138,8.32,19.138,19.322v24.777
			c0,1.018-0.924,1.757-1.941,1.757h-8.043c-1.017,0-1.941-0.739-1.941-1.757V186.908z"/>
		<path fill="#005CA7" d="M220.542,169.989c1.387,1.109,1.11,2.496,0.093,3.698l-2.958,3.513c-1.017,1.202-2.404,1.295-4.161,0.277
			c-2.866-2.126-6.564-3.79-10.54-3.79c-4.068,0-6.657,1.849-6.657,3.975c0,2.127,1.572,3.514,5.64,4.253l7.304,1.387
			c7.859,1.479,13.591,5.271,13.591,13.313c0,8.599-8.043,14.885-19.877,14.885c-7.766,0-13.406-2.588-17.011-5.27
			c-3.421-2.589-3.236-4.715-1.387-6.194l3.42-2.773c1.757-1.387,3.051-0.739,4.161,0.277c2.958,2.589,6.657,4.623,11.372,4.623
			c4.808,0,7.119-2.127,7.119-4.438c0-2.589-2.404-3.421-7.119-4.438l-7.119-1.479c-7.304-1.479-12.019-5.917-12.019-13.221
			c0-8.043,7.396-14.237,18.86-14.237C211.759,164.35,217.676,167.493,220.542,169.989z"/>
		<path fill="#005CA7" d="M252.344,208.265c-0.277,1.109-1.202,1.941-2.404,1.941h-10.355c-1.202,0-2.034-0.832-2.403-1.941
			l-12.851-39.939c-0.647-1.757,0.277-2.682,1.756-2.682h8.691c1.387,0,2.034,0.832,2.311,1.85l7.858,28.476l7.674-28.476
			c0.369-1.202,1.109-1.85,2.312-1.85h9.614c1.203,0,2.035,0.647,2.404,1.85l7.674,28.476l8.043-28.476
			c0.277-1.018,0.925-1.85,2.312-1.85h7.767c1.479,0,2.403,0.925,1.756,2.682l-12.851,39.939c-0.37,1.109-1.109,1.941-2.496,1.941
			h-10.077c-1.387,0-2.219-0.832-2.496-1.941l-7.119-26.719L252.344,208.265z"/>
		<path fill="#005CA7" d="M342.666,186.631v2.219c0,1.109-0.369,2.034-2.127,2.034h-31.803c0.646,6.286,5.639,10.446,11.648,10.446
			c4.715,0,7.766-1.664,10.447-4.715c0.647-0.739,1.387-1.201,2.404-0.462l5.824,4.067c1.018,0.74,1.018,1.942,0.369,2.682
			c-3.697,4.715-9.43,8.598-19.322,8.598c-13.961,0-23.668-10.17-23.668-23.391s9.801-23.76,23.483-23.76
			C333.698,164.35,342.666,174.797,342.666,186.631z M330.924,183.302c-1.109-6.194-5.731-9.337-10.908-9.337
			c-5.455,0-9.801,3.697-11.002,9.337H330.924z"/>
		<path fill="#005CA7" d="M372.154,165.089c1.018,0,2.127,0.462,2.127,2.312v7.951c0,1.849-1.479,2.311-2.219,2.311h-2.219
			c-5.918,0-9.338,2.959-9.338,10.725v20.063c0,1.018-0.926,1.757-1.941,1.757h-8.137c-1.017,0-1.85-0.832-1.85-1.849v-40.772
			c0-1.109,0.833-1.941,1.85-1.941h7.674c1.018,0,1.85,0.74,1.85,1.757v4.253c2.311-3.976,6.193-6.564,10.908-6.564H372.154z"/>
	</g>
</g>
<g>
	<path fill="#6D6E71" d="M385.089,180.712h14.375c1.091-2.309,2.119-4.681,3.084-7.116l7.638,1.993l-2.799,5.123h24.623v5.979
		h-8.635c-1.486,4.364-3.582,7.938-6.286,10.722l13.64,5.171l-3.416,6.357l-16.154-7.069c-5.377,2.974-12.959,5.267-22.748,6.88
		c-1.297-2.626-2.42-4.744-3.369-6.357c7.48-0.917,13.506-2.222,18.076-3.914c-4.176-1.708-7.924-3.187-11.244-4.436
		c1.598-2.356,3.1-4.808,4.508-7.354h-11.292V180.712z M403.828,163.349l7.828-1.566l1.803,5.077h16.843v10.342h-6.88v-4.459
		h-29.604v4.27h-6.879v-10.152h18.218C404.714,165.626,404.271,164.455,403.828,163.349z M401.077,191.435l9.062,3.368
		c2.436-1.913,4.309-4.617,5.621-8.112h-11.789C402.959,188.414,401.994,189.995,401.077,191.435z"/>
	<path fill="#6D6E71" d="M466.121,195.419c2.594,1.202,4.775,2.151,6.547,2.847c-0.633,2.626-1.234,4.476-1.803,5.551
		c-1.172,2.752-3.416,4.128-6.736,4.128h-11.957c-3.32,0-5.486-1.107-6.5-3.321c-3.1,1.139-6.309,2.135-9.63,2.989
		c-0.917-2.183-1.851-4.128-2.8-5.836c4.08-0.98,8.018-2.197,11.814-3.652v-11.671h6.262v9.014
		c6.801-3.226,13.063-7.259,18.787-12.098l4.223,4.507c-6.643,5.725-13.965,10.406-21.967,14.043
		c0.475,0.316,1.107,0.475,1.898,0.475h7.021c2.215,0,3.543-0.822,3.984-2.467C465.582,198.63,465.867,197.127,466.121,195.419z
		 M438.793,186.88l5.314,2.515c-1.93,3.732-3.748,7.021-5.456,9.868l-4.981-3.227C435.535,193.127,437.244,190.074,438.793,186.88z
		 M455.73,182.136c1.992,1.771,3.953,3.605,5.883,5.503l-4.506,3.748c-1.393-1.708-3.164-3.716-5.314-6.025l2.846-2.324h-19.355
		v-4.792h8.064v-2.609h-6.167v-4.696h6.167v-2.609h-7.4v-4.792h19.594v4.792h-6.311v2.609h5.883v4.696h-5.883v2.609h6.357v4.032
		L455.73,182.136z M458.719,178.293h6.215v-2.657h-6.023v-4.696h6.023v-2.657h-6.594v-4.792h19.973v4.792h-7.496v2.657h6.453v4.696
		h-6.453v2.657h8.113v4.791h-20.211V178.293z M474.992,190.105c2.34,2.752,4.381,5.282,6.121,7.591l-5.029,3.701
		c-1.678-2.499-3.605-5.124-5.789-7.876L474.992,190.105z"/>
</g>
<g>
</g>
<g>
</g>
<g>
</g>
<g>
</g>
<g>
</g>
<g>
</g>
</svg>
