<?xml version="1.0" encoding="utf-8"?>
<!-- Generator: Adobe Illustrator 16.0.0, SVG Export Plug-In . SVG Version: 6.00 Build 0)  -->
<!DOCTYPE svg PUBLIC "-//W3C//DTD SVG 1.1//EN" "http://www.w3.org/Graphics/SVG/1.1/DTD/svg11.dtd">
<svg version="1.1" id="Layer_1" xmlns="http://www.w3.org/2000/svg" xmlns:xlink="http://www.w3.org/1999/xlink" x="0px" y="0px"
	 width="500px" height="220px" viewBox="0 0 500 220" enable-background="new 0 0 500 220" xml:space="preserve">
<path fill="#005CA7" d="M14.98,142.632c0,0,70.399-122.1,70.708-122.604c2.537-4.154,3.914-5.287,6.539-6.895
	c2.607-1.598,4.254-2.433,6.759-3.106c1.901-0.511,8.028-1.408,9.999-1.405c2.719,0.003,8.421,0.965,10.986,1.864
	c1.886,0.661,5.266,1.937,7.587,3.92c2.326,1.988,6.056,6.958,7.576,9.612c17.332,30.225,69.081,119.671,69.081,119.671
	s-7.557,2.985-10.141,3.787c-4.14,1.281-12.663,3.147-16.985,3.423c-3.957,0.252-11.896-0.849-15.764-1.711
	c-3.353-0.747-9.761-3.354-12.83-4.89c-2.872-1.434-8.165-5.154-10.631-7.209c-2.708-2.255-7.439-7.55-9.531-10.385
	c-5.51-7.463-18.738-32.017-18.738-32.017S95.43,120.507,89.354,128.17c-2.204,2.778-7.614,7.443-10.386,9.653
	c-2.597,2.073-8.26,5.626-11.244,7.089c-2.455,1.199-7.724,2.803-10.385,3.422c-3.566,0.828-10.887,1.515-14.542,1.709
	c-3.181,0.17-9.616-0.104-12.709-0.854"/>
<path fill="#1C8ECE" d="M325.945,121.112c-1.891,3.008-11.081,17.689-14.521,21.111c-2.992,2.975-6.792,5.253-10.43,6.84
	c-3.279,1.433-6.108,1.881-9.774,1.871c-4.976-0.014-10.631-2.113-14.664-4.478c-2.242-1.313-5.701-4.276-7.821-6.843
	c-1.357-1.649-3.303-5.494-4.398-7.331c-5.646-9.474-22.483-37.961-22.483-37.961s-6.834,12.098-9.072,16.162
	c-1.868,3.386-5.645,10.17-7.872,13.325c-2.348,3.331-5.444,6.687-7.022,8.22c-5.582,5.422-7.393,6.844-7.393,6.844l-31.037-52.79
	c0,0,29.273-50.54,38.281-66.216c1.997-3.474,4.932-5.826,8.31-7.822c3.517-2.075,8.352-4.653,15.641-4.725
	c6.242-0.062,13.482,1.955,18.572,5.865c4.721,3.625,6.786,8.845,8.639,12.058c5.499,9.554,22.156,38.125,22.156,38.125"/>
<path fill="#005CA7" d="M331.157,111.988l-34.719-55.676c0,0,11.516-19.919,20.524-35.597c1.996-3.474,4.929-5.825,8.308-7.82
	c3.518-2.076,8.353-4.654,15.641-4.726c6.242-0.062,13.483,1.955,18.573,5.865c4.721,3.624,6.786,8.844,8.639,12.057
	c5.499,9.554,22.156,38.125,22.156,38.125s14.689-27.458,21.34-35.354c2.605-3.094,8.557-8.182,12.223-10.59
	c3.655-2.405,9.926-5.652,13.522-6.843c4.121-1.366,9.672-2.453,12.953-2.955c2.091-0.321,4.609-0.832,8.429-0.671
	c4.37,0.183,10.693,1.467,15.093,3.054c5.35,1.933,11.181,5.377,11.181,5.377s-48.672,86.988-66.353,115.108
	c-1.889,3.006-4.581,8.309-8.02,11.729c-2.994,2.974-6.796,5.255-10.429,6.842c-3.279,1.431-6.11,1.88-9.777,1.87
	c-4.976-0.014-10.63-2.113-14.664-4.477c-2.24-1.313-5.698-4.276-7.817-6.844c-1.36-1.648-3.305-5.495-4.399-7.331
	c-5.648-9.474-22.485-37.961-22.485-37.961"/>
<g>
	<g>
		<path fill="#005CA7" d="M53.352,153.822c8.069,0,14.596,3.561,17.444,8.663v-4.51c0-1.424,1.068-2.492,2.374-2.492h10.442
			c1.306,0,2.374,1.068,2.374,2.492v52.333c0,1.305-1.068,2.373-2.374,2.373H73.17c-1.306,0-2.374-1.068-2.374-2.373v-4.628
			c-2.967,5.103-9.494,8.662-17.563,8.662c-14.833,0-28.599-11.866-28.599-30.379C24.635,165.57,38.281,153.822,53.352,153.822z
			 M55.488,200.222c8.9,0,15.308-7.12,15.308-16.139c0-8.9-6.408-16.021-15.308-16.021c-8.781,0-15.427,7.12-15.427,16.021
			C40.062,193.102,46.707,200.222,55.488,200.222z"/>
		<path fill="#005CA7" d="M140.925,182.777c0-9.019-4.984-14.833-13.884-14.833c-8.663,0-14.358,5.933-14.358,14.833v27.649
			c0,1.306-1.187,2.255-2.492,2.255H99.748c-1.305,0-2.374-1.068-2.374-2.373v-52.333c0-1.424,1.068-2.492,2.374-2.492h10.443
			c1.305,0,2.492,0.95,2.492,2.255v4.51c3.322-4.628,9.849-8.426,18.987-8.426c15.189,0,24.564,10.681,24.564,24.802v31.803
			c0,1.306-1.187,2.255-2.492,2.255h-10.324c-1.306,0-2.492-0.949-2.492-2.255V182.777z"/>
		<path fill="#005CA7" d="M210.58,182.777c0-9.019-4.984-14.833-13.884-14.833c-8.663,0-14.358,5.933-14.358,14.833v27.649
			c0,1.306-1.187,2.255-2.492,2.255h-10.443c-1.305,0-2.374-1.068-2.374-2.373v-52.333c0-1.424,1.068-2.492,2.374-2.492h10.443
			c1.305,0,2.492,0.95,2.492,2.255v4.51c3.322-4.628,9.849-8.426,18.987-8.426c15.189,0,24.564,10.681,24.564,24.802v31.803
			c0,1.306-1.187,2.255-2.492,2.255h-10.324c-1.306,0-2.492-0.949-2.492-2.255V182.777z"/>
		<path fill="#005CA7" d="M281.184,161.062c1.779,1.424,1.424,3.204,0.118,4.746l-3.797,4.51c-1.306,1.543-3.086,1.661-5.341,0.355
			c-3.679-2.729-8.425-4.865-13.527-4.865c-5.222,0-8.544,2.374-8.544,5.104c0,2.729,2.017,4.509,7.238,5.458l9.375,1.78
			c10.087,1.898,17.444,6.764,17.444,17.088c0,11.036-10.324,19.105-25.514,19.105c-9.969,0-17.207-3.322-21.835-6.764
			c-4.391-3.323-4.154-6.052-1.78-7.951l4.391-3.56c2.255-1.78,3.916-0.949,5.34,0.355c3.798,3.323,8.544,5.934,14.597,5.934
			c6.171,0,9.137-2.729,9.137-5.696c0-3.322-3.085-4.391-9.137-5.695l-9.138-1.899c-9.375-1.898-15.427-7.595-15.427-16.969
			c0-10.324,9.493-18.275,24.208-18.275C269.91,153.822,277.505,157.857,281.184,161.062z"/>
		<path fill="#005CA7" d="M322.004,210.189c-0.355,1.424-1.542,2.492-3.085,2.492h-13.291c-1.542,0-2.61-1.068-3.085-2.492
			l-16.495-51.265c-0.83-2.254,0.356-3.441,2.255-3.441h11.154c1.78,0,2.611,1.068,2.967,2.374l10.087,36.55l9.85-36.55
			c0.475-1.543,1.424-2.374,2.967-2.374h12.341c1.543,0,2.611,0.831,3.086,2.374l9.85,36.55l10.323-36.55
			c0.356-1.306,1.188-2.374,2.967-2.374h9.969c1.898,0,3.085,1.188,2.254,3.441l-16.494,51.265
			c-0.475,1.424-1.424,2.492-3.204,2.492h-12.935c-1.78,0-2.849-1.068-3.204-2.492l-9.138-34.295L322.004,210.189z"/>
		<path fill="#005CA7" d="M437.94,182.422v2.848c0,1.424-0.475,2.61-2.729,2.61H394.39c0.831,8.069,7.238,13.41,14.952,13.41
			c6.052,0,9.968-2.137,13.409-6.053c0.831-0.949,1.78-1.543,3.086-0.593l7.476,5.221c1.306,0.949,1.306,2.492,0.475,3.441
			c-4.746,6.053-12.104,11.036-24.802,11.036c-17.918,0-30.379-13.053-30.379-30.022s12.579-30.498,30.142-30.498
			C426.43,153.822,437.94,167.232,437.94,182.422z M422.87,178.149c-1.424-7.951-7.357-11.985-14.003-11.985
			c-7.002,0-12.579,4.747-14.121,11.985H422.87z"/>
		<path fill="#005CA7" d="M475.792,154.771c1.306,0,2.729,0.594,2.729,2.967v10.206c0,2.373-1.898,2.967-2.848,2.967h-2.849
			c-7.595,0-11.985,3.797-11.985,13.765v25.751c0,1.306-1.187,2.255-2.492,2.255h-10.442c-1.306,0-2.373-1.068-2.373-2.373v-52.333
			c0-1.424,1.067-2.492,2.373-2.492h9.85c1.306,0,2.373,0.95,2.373,2.255v5.459c2.967-5.103,7.951-8.426,14.003-8.426H475.792z"/>
	</g>
</g>
<g>
</g>
<g>
</g>
<g>
</g>
<g>
</g>
<g>
</g>
<g>
</g>
</svg>
