<?xml version="1.0" encoding="utf-8"?>
<!-- Generator: Adobe Illustrator 16.0.3, SVG Export Plug-In . SVG Version: 6.00 Build 0)  -->
<!DOCTYPE svg PUBLIC "-//W3C//DTD SVG 1.1//EN" "http://www.w3.org/Graphics/SVG/1.1/DTD/svg11.dtd">
<svg version="1.1" id="Layer_1" xmlns="http://www.w3.org/2000/svg" xmlns:xlink="http://www.w3.org/1999/xlink" x="0px" y="0px"
	 width="256px" height="301px" viewBox="0 0 256 301" enable-background="new 0 0 256 301" xml:space="preserve">
<g>
	<path fill="#F15A22" d="M256,97.1L246.7,72l6.399-14.4c0.801-1.9,0.4-4-1-5.5l-17.5-17.7C226.9,26.7,215.5,24,205.2,27.6l-4.9,1.7
		l-26.8-29L128.2,0h-0.3L82.3,0.4L55.6,29.6l-4.8-1.7c-10.4-3.7-21.9-1-29.6,6.9l-17.8,18c-1.2,1.2-1.5,2.9-0.9,4.4l6.7,15L0,97.3
		L6,120l27.2,103.3c3.1,11.9,10.3,22.3,20.4,29.5c0,0,33,23.3,65.5,44.4c2.9,1.899,5.9,3.2,9.1,3.2s6.2-1.301,9.1-3.2
		c36.601-24,65.5-44.5,65.5-44.5c10-7.2,17.2-17.601,20.3-29.5l27-103.3L256,97.1z"/>
	
		<linearGradient id="SVGID_1_" gradientUnits="userSpaceOnUse" x1="-89.2485" y1="299.9492" x2="-88.2485" y2="299.9492" gradientTransform="matrix(129.9 0 0 -266.2408 11593.4121 80025.4844)">
		<stop  offset="0" style="stop-color:#FFFFFF"/>
		<stop  offset="0.1413" style="stop-color:#FFFFFF;stop-opacity:0.9576"/>
		<stop  offset="1" style="stop-color:#FFFFFF;stop-opacity:0.7"/>
	</linearGradient>
	<path display="none" opacity="0.15" fill="url(#SVGID_1_)" enable-background="new    " d="M34.5,227.7L0,99.5l10.1-25.1l-7-18.6
		l16.7-17c5.5-4.9,16.3-6.6,21.3-3.7l26.1,15l34,7.9l26.5-11l2.2,227.7c-0.4,32.8,1.699,29.3-22.4,13.8L48,248.6
		C41.6,242.5,36.7,235.6,34.5,227.7z"/>
	
		<linearGradient id="SVGID_2_" gradientUnits="userSpaceOnUse" x1="-89.207" y1="299.958" x2="-88.207" y2="299.958" gradientTransform="matrix(127.5 0 0 -271.2381 11502.3125 81524.1797)">
		<stop  offset="0" style="stop-color:#F1F1F2"/>
		<stop  offset="0.0919" style="stop-color:#E4E5E6"/>
		<stop  offset="0.2357" style="stop-color:#D9DADB"/>
		<stop  offset="0.438" style="stop-color:#D2D4D5"/>
		<stop  offset="1" style="stop-color:#D0D2D3"/>
	</linearGradient>
	<path display="none" opacity="0.4" fill="url(#SVGID_2_)" enable-background="new    " d="M202.2,252.246l-50.601,34.6
		c-14.1,7.7-20.899,15.3-22,11.6c-0.899-2.899-0.199-11.399-0.5-24.6l-0.6-222.7c0.1-2.2,1.6-5.9,4.2-5.5l25.8,7.8l37.2-5.8
		l24.6-18.1c2.601-2,6.4-1.8,8.8,0.5l22,21c2,2.1,2.101,6.2,0.9,8.8l-6.1,11.3l10.1,26.1l-34.8,129.4
		C215.8,242.746,208.2,246.945,202.2,252.246z"/>
	<path fill="#FFFFFF" d="M134,184.801c-1.2-0.5-2.5-0.899-2.9-0.899h-1.6h-1.6c-0.4,0-1.7,0.399-2.9,0.899l-13,5.4
		c-1.2,0.5-3.2,1.4-4.4,2l-19.6,10.2c-1.2,0.601-1.3,1.7-0.2,2.5l17.3,12.2c1.1,0.8,2.8,2.1,3.8,3l7.7,6.6c1,0.9,2.6,2.301,3.6,3.2
		l7.4,6.601c1,0.899,2.6,0.899,3.6,0l7.6-6.601c1-0.899,2.601-2.3,3.601-3.2l7.699-6.699c1-0.9,2.7-2.201,3.801-3l17.3-12.301
		c1.1-0.8,1-1.9-0.2-2.5l-19.6-10c-1.2-0.6-3.2-1.5-4.4-2L134,184.801z"/>
	<path fill="#FFFFFF" d="M227.813,101.557c0.399-1.3,0.399-1.8,0.399-1.8c0-1.3-0.1-3.5-0.3-4.8l-1-2.9c-0.6-1.2-1.6-3.1-2.399-4.2
		l-11.301-16.7c-0.699-1.1-2-2.8-2.899-3.9l-14.601-18.3c-0.8-1-1.6-1.9-1.699-1.8h-0.2c0,0-1.101,0.2-2.4,0.4l-22.3,4.4
		c-1.3,0.3-3.4,0.7-4.7,0.9l-0.399,0.1c-1.301,0.2-3.4,0.1-4.7-0.3l-18.7-6c-1.3-0.4-3.4-1-4.6-1.3c0,0-3.801-0.9-6.9-0.8
		c-3.1,0-6.9,0.8-6.9,0.8c-1.3,0.3-3.4,0.9-4.6,1.3l-18.7,6c-1.3,0.4-3.4,0.5-4.7,0.3l-0.4-0.1c-1.3-0.2-3.4-0.7-4.7-0.9l-22.5-4.2
		c-1.3-0.3-2.4-0.4-2.4-0.4h-0.2c-0.1,0-0.9,0.8-1.7,1.8l-14.6,18.3c-0.8,1-2.1,2.8-2.9,3.9l-11.3,16.7c-0.7,1.1-1.8,3-2.4,4.2
		l-1,2.9c-0.2,1.3-0.4,3.5-0.3,4.8c0,0,0,0.4,0.4,1.8c0.7,2.4,2.4,4.6,2.4,4.6c0.8,1,2.3,2.7,3.2,3.6l33.1,35.2c0.9,1,1.2,2.8,0.7,4
		l-6.9,16.3c-0.5,1.2-0.6,3.2-0.1,4.5l1.9,5.1c1.6,4.301,4.3,8.101,7.9,11l6.7,5.4c1,0.801,2.8,1.1,4,0.5l21.2-10.1
		c1.2-0.6,3-1.801,4-2.7l15.2-13.7c2.2-2,2.3-5.4,0.3-7.6l-31.9-21.5c-1.1-0.7-1.5-2.3-0.9-3.5l14-26.4c0.6-1.2,0.7-3.1,0.2-4.3
		l-1.7-3.9c-0.5-1.2-2-2.6-3.2-3.1l-41.1-15.4c-1.2-0.5-1.2-1,0.1-1.1l26.5-2.5c1.3-0.1,3.4,0.1,4.7,0.4l23.6,6.6
		c1.3,0.4,2.1,1.7,1.9,3l-8.2,44.9c-0.2,1.3-0.2,3.1,0.1,4.1c0.3,1,1.6,1.9,2.9,2.2l16.4,3.5c1.3,0.3,3.4,0.3,4.7,0l15.3-3.5
		c1.301-0.3,2.601-1.3,2.9-2.2s0.4-2.8,0.1-4.1l-8.1-44.9c-0.2-1.3,0.6-2.7,1.9-3l23.6-6.6c1.3-0.4,3.4-0.5,4.7-0.4l26.5,2.5
		c1.3,0.1,1.399,0.6,0.1,1.1l-41.1,15.6c-1.2,0.5-2.7,1.8-3.2,3.1l-1.7,3.9c-0.5,1.2-0.5,3.2,0.2,4.3l14.1,26.4
		c0.601,1.2,0.2,2.7-0.899,3.5l-31.9,21.6c-2.1,2.101-1.899,5.601,0.3,7.601l15.2,13.699c1,0.9,2.8,2.1,4,2.6l21.3,10.101
		c1.2,0.601,3,0.3,4-0.5l6.7-5.5c3.601-2.899,6.3-6.7,7.8-11l1.9-5.101c0.5-1.199,0.4-3.299-0.1-4.5l-6.9-16.299
		c-0.5-1.2-0.2-3,0.7-4l33.1-35.2c0.9-1,2.3-2.6,3.2-3.6C225.413,106.157,227.213,103.957,227.813,101.557z"/>
</g>
</svg>
