<?xml version="1.0" encoding="utf-8"?>
<!-- Generator: Adobe Illustrator 16.0.0, SVG Export Plug-In . SVG Version: 6.00 Build 0)  -->
<!DOCTYPE svg PUBLIC "-//W3C//DTD SVG 1.1//EN" "http://www.w3.org/Graphics/SVG/1.1/DTD/svg11.dtd">
<svg version="1.1" id="Layer_1" xmlns="http://www.w3.org/2000/svg" xmlns:xlink="http://www.w3.org/1999/xlink" x="0px" y="0px"
	 width="200px" height="30px" viewBox="0 0 200 30" enable-background="new 0 0 200 30" xml:space="preserve">
<g display="none">
	<path display="inline" d="M19.958,13.734c-0.06-1.127-0.132-2.483-0.12-3.49h-0.036c-0.276,0.947-0.612,1.955-1.02,3.07
		l-1.427,3.922h-0.792l-1.307-3.85c-0.384-1.139-0.708-2.183-0.936-3.142h-0.024c-0.024,1.007-0.084,2.363-0.156,3.574l-0.216,3.466
		H12.93l0.563-8.083h1.332l1.379,3.91c0.336,0.996,0.612,1.883,0.815,2.723h0.036c0.204-0.815,0.492-1.703,0.852-2.723l1.439-3.91
		h1.331l0.504,8.083h-1.02L19.958,13.734z"/>
</g>
<g>
	<path fill="#1F3364" d="M12.22,28.462L5.915,7.625v20.837H0.897V2.907h9.322l4.485,15.295l4.718-15.295h9.351v25.555h-6.028V7.625
		l-6.428,20.837H12.22z"/>
	<path fill="#1F3364" d="M46.423,2.907l8,25.555h-6.434l-1.574-5.261h-8.263l-1.602,5.261h-5.249l8.191-25.555H46.423z
		 M39.588,18.483h5.415l-2.684-8.968L39.588,18.483z"/>
	<path fill="#1F3364" d="M77.787,12.417l-6.271,0.393C71.428,9.204,70.021,7.4,67.294,7.4c-3.127,0-4.69,2.777-4.69,8.332
		c0,3.208,0.425,5.382,1.275,6.524c0.851,1.142,2.039,1.713,3.564,1.713c2.476,0,3.989-1.61,4.54-4.83l5.804,0.355
		c-0.375,3.059-1.513,5.383-3.417,6.974c-1.903,1.592-4.234,2.388-6.993,2.388c-3.382,0-6.131-1.167-8.247-3.501
		c-2.116-2.334-3.173-5.561-3.173-9.68c0-3.856,1.023-7.014,3.07-9.473c2.047-2.458,4.842-3.688,8.387-3.688
		C73.556,2.514,77.013,5.815,77.787,12.417z"/>
	<path fill="#1F3364" d="M98.886,8.523l-5.092,1.704c-0.685-2.022-2.136-3.033-4.352-3.033c-2.366,0-3.549,0.768-3.549,2.303
		c0,0.611,0.221,1.129,0.664,1.554s1.442,0.793,3,1.106c2.605,0.525,4.512,1.057,5.721,1.593c1.209,0.537,2.228,1.4,3.057,2.593
		c0.829,1.191,1.244,2.523,1.244,3.996c0,2.309-0.889,4.305-2.666,5.989c-1.777,1.685-4.411,2.527-7.903,2.527
		c-2.619,0-4.848-0.597-6.687-1.788c-1.839-1.192-3.052-2.961-3.638-5.308l5.542-1.255c0.623,2.385,2.354,3.576,5.194,3.576
		c1.37,0,2.392-0.265,3.064-0.796c0.672-0.53,1.009-1.163,1.009-1.9c0-0.748-0.306-1.329-0.917-1.741
		c-0.61-0.411-1.788-0.799-3.533-1.161c-3.253-0.674-5.572-1.595-6.955-2.762c-1.384-1.167-2.075-2.874-2.075-5.12
		c0-2.271,0.826-4.187,2.478-5.747c1.652-1.56,3.893-2.34,6.724-2.34C94.229,2.514,97.453,4.517,98.886,8.523z"/>
	<path fill="#72B3E2" d="M108.809,2.383v5.579h-5.578V2.383H108.809z M108.809,9.553v18.909h-5.578V9.553H108.809z"/>
	<path fill="#72B3E2" d="M124.98,28.462l-6.306-20.837v20.837h-5.018V2.907h9.322l4.485,15.295l4.719-15.295h9.351v25.555h-6.028
		V7.625l-6.429,20.837H124.98z"/>
	<path fill="#72B3E2" d="M166.771,2.907V18.82c0,2.571-0.293,4.483-0.88,5.738c-0.587,1.254-1.669,2.284-3.248,3.089
		s-3.598,1.208-6.057,1.208s-4.415-0.362-5.869-1.086s-2.543-1.754-3.267-3.09c-0.724-1.335-1.086-3.288-1.086-5.859V2.907h6.496
		V18.82c0,1.373,0.115,2.384,0.347,3.033c0.23,0.648,0.692,1.164,1.386,1.544c0.692,0.381,1.544,0.571,2.555,0.571
		c1.124,0,2.038-0.188,2.743-0.562c0.705-0.375,1.173-0.871,1.404-1.488c0.23-0.618,0.347-1.65,0.347-3.099V2.907H166.771z"/>
	<path fill="#72B3E2" d="M182.849,28.462l-6.306-20.837v20.837h-5.018V2.907h9.322l4.485,15.295l4.719-15.295h9.351v25.555h-6.028
		V7.625l-6.429,20.837H182.849z"/>
</g>
<g>
</g>
<g>
</g>
<g>
</g>
<g>
</g>
<g>
</g>
<g>
</g>
</svg>
