<?xml version="1.0" encoding="utf-8"?>
<!-- Generator: Adobe Illustrator 16.0.0, SVG Export Plug-In . SVG Version: 6.00 Build 0)  -->
<!DOCTYPE svg PUBLIC "-//W3C//DTD SVG 1.1//EN" "http://www.w3.org/Graphics/SVG/1.1/DTD/svg11.dtd">
<svg version="1.1" id="Layer_1" xmlns="http://www.w3.org/2000/svg" xmlns:xlink="http://www.w3.org/1999/xlink" x="0px" y="0px"
	 width="175px" height="26px" viewBox="0 0 175 26" enable-background="new 0 0 175 26" xml:space="preserve">
<polyline fill="#3C83C5" points="26.331,2.861 32.244,18.619 30.015,24.881 24.542,8.512 "/>
<polyline fill="#72B3E2" points="27.367,1.119 38.653,1.119 46.501,24.881 35.449,24.881 "/>
<path fill="#1F3364" d="M13.759,24.873l1.78-5.588c0,0-5.64-16.185-5.641-16.185c-0.209,0.626-0.281,0.831-7.423,21.78"/>
<polyline fill="#2B67B1" points="10.771,1.119 22.071,1.119 30.015,24.881 18.995,24.881 "/>
<polyline fill="#3574BA" points="24.542,8.512 24.803,7.677 30.302,24.072 30.015,24.881 "/>
<g>
	<path fill="#1F3364" d="M54.943,17.61L51.006,4.598V17.61h-3.133V1.652h5.821l2.801,9.552l2.947-9.552h5.839V17.61h-3.765V4.598
		L57.502,17.61H54.943z"/>
	<path fill="#1F3364" d="M76.303,1.652l4.995,15.958H77.28l-0.983-3.285h-5.159l-1.001,3.285h-3.277l5.115-15.958H76.303z
		 M72.034,11.379h3.382l-1.677-5.6L72.034,11.379z"/>
	<path fill="#1F3364" d="M95.889,7.591l-3.916,0.246c-0.055-2.252-0.934-3.379-2.637-3.379c-1.952,0-2.929,1.734-2.929,5.203
		c0,2.003,0.266,3.361,0.797,4.075c0.53,0.713,1.272,1.07,2.226,1.07c1.546,0,2.491-1.006,2.835-3.017l3.624,0.222
		c-0.233,1.91-0.945,3.361-2.134,4.355s-2.644,1.49-4.366,1.49c-2.112,0-3.829-0.729-5.15-2.186s-1.981-3.473-1.981-6.045
		c0-2.408,0.639-4.38,1.917-5.916s3.024-2.303,5.238-2.303C93.247,1.406,95.405,3.468,95.889,7.591z"/>
	<path fill="#1F3364" d="M109.065,5.159l-3.181,1.064c-0.428-1.263-1.333-1.894-2.718-1.894c-1.478,0-2.216,0.479-2.216,1.438
		c0,0.382,0.139,0.706,0.415,0.97c0.275,0.265,0.9,0.495,1.873,0.69c1.627,0.329,2.817,0.66,3.573,0.995
		c0.755,0.335,1.391,0.875,1.908,1.619c0.519,0.744,0.777,1.576,0.777,2.496c0,1.441-0.556,2.688-1.665,3.741
		c-1.109,1.052-2.755,1.577-4.936,1.577c-1.635,0-3.026-0.372-4.176-1.116c-1.148-0.744-1.905-1.849-2.271-3.314l3.461-0.783
		c0.389,1.489,1.47,2.233,3.243,2.233c0.855,0,1.493-0.166,1.914-0.497c0.42-0.331,0.63-0.727,0.63-1.187
		c0-0.468-0.191-0.83-0.572-1.087c-0.382-0.257-1.117-0.499-2.206-0.725c-2.032-0.421-3.479-0.996-4.344-1.725
		c-0.864-0.729-1.296-1.794-1.296-3.197c0-1.418,0.516-2.614,1.548-3.589c1.031-0.974,2.431-1.461,4.198-1.461
		C106.156,1.406,108.17,2.657,109.065,5.159z"/>
	<path fill="#72B3E2" d="M115.262,1.324v3.484h-3.483V1.324H115.262z M115.262,5.802V17.61h-3.483V5.802H115.262z"/>
	<path fill="#72B3E2" d="M125.36,17.61l-3.938-13.013V17.61h-3.134V1.652h5.821l2.801,9.552l2.947-9.552h5.839V17.61h-3.765V4.598
		l-4.014,13.013H125.36z"/>
	<path fill="#72B3E2" d="M151.458,1.652v9.938c0,1.605-0.184,2.8-0.55,3.583s-1.042,1.426-2.028,1.929s-2.247,0.754-3.782,0.754
		s-2.757-0.226-3.665-0.678s-1.588-1.095-2.04-1.929s-0.678-2.054-0.678-3.66V1.652h4.057v9.938c0,0.857,0.072,1.489,0.216,1.894
		c0.145,0.405,0.433,0.727,0.865,0.965c0.433,0.237,0.965,0.356,1.596,0.356c0.702,0,1.272-0.117,1.713-0.351
		c0.44-0.234,0.732-0.544,0.877-0.93c0.145-0.386,0.217-1.031,0.217-1.935V1.652H151.458z"/>
	<path fill="#72B3E2" d="M161.499,17.61l-3.938-13.013V17.61h-3.134V1.652h5.821l2.801,9.552l2.947-9.552h5.839V17.61h-3.765V4.598
		l-4.014,13.013H161.499z"/>
</g>
<g id="Material__x26__Chemical_Science_Framework_3_">
	<path fill="#6A6A6A" d="M47.82,24.88v-4.946h0.985l1.171,3.502c0.108,0.326,0.187,0.57,0.236,0.732
		c0.056-0.18,0.144-0.444,0.263-0.793l1.185-3.441h0.88v4.946H51.91v-4.141l-1.438,4.141h-0.59l-1.431-4.211v4.211H47.82z"/>
	<path fill="#6A6A6A" d="M55.858,24.438c-0.225,0.191-0.441,0.326-0.649,0.405s-0.432,0.118-0.67,0.118
		c-0.394,0-0.696-0.097-0.908-0.289c-0.211-0.191-0.317-0.438-0.317-0.736c0-0.176,0.04-0.336,0.12-0.481
		c0.08-0.145,0.184-0.262,0.313-0.349c0.129-0.088,0.275-0.154,0.437-0.199c0.119-0.032,0.299-0.063,0.54-0.092
		c0.49-0.059,0.852-0.128,1.083-0.209c0.002-0.083,0.003-0.136,0.003-0.158c0-0.248-0.057-0.422-0.172-0.523
		c-0.155-0.137-0.386-0.206-0.692-0.206c-0.286,0-0.497,0.051-0.633,0.15c-0.136,0.101-0.237,0.277-0.302,0.531l-0.594-0.081
		c0.054-0.254,0.143-0.459,0.267-0.615c0.124-0.156,0.302-0.277,0.536-0.361s0.505-0.126,0.813-0.126
		c0.306,0,0.554,0.035,0.746,0.107s0.332,0.163,0.422,0.271c0.09,0.109,0.153,0.247,0.189,0.414c0.02,0.104,0.03,0.29,0.03,0.56
		v0.81c0,0.565,0.013,0.922,0.039,1.071c0.025,0.15,0.077,0.294,0.153,0.431h-0.634C55.917,24.754,55.876,24.606,55.858,24.438z
		 M55.807,23.081c-0.22,0.09-0.551,0.167-0.992,0.229c-0.25,0.036-0.426,0.077-0.53,0.122s-0.184,0.11-0.24,0.197
		s-0.084,0.183-0.084,0.288c0,0.162,0.062,0.297,0.184,0.405c0.123,0.107,0.302,0.162,0.538,0.162c0.234,0,0.442-0.052,0.625-0.153
		c0.182-0.103,0.316-0.243,0.401-0.421c0.065-0.137,0.098-0.339,0.098-0.607V23.081z"/>
	<path fill="#6A6A6A" d="M58.689,24.337l0.087,0.536c-0.171,0.036-0.324,0.054-0.458,0.054c-0.221,0-0.392-0.034-0.513-0.104
		c-0.122-0.069-0.207-0.161-0.256-0.274c-0.049-0.114-0.074-0.353-0.074-0.718v-2.062h-0.445v-0.473h0.445v-0.887l0.604-0.364v1.251
		h0.611v0.473h-0.611v2.096c0,0.173,0.011,0.284,0.032,0.334c0.021,0.05,0.056,0.089,0.104,0.118s0.118,0.044,0.208,0.044
		C58.49,24.36,58.579,24.353,58.689,24.337z"/>
	<path fill="#6A6A6A" d="M61.736,23.726l0.627,0.078c-0.099,0.366-0.282,0.651-0.55,0.854s-0.61,0.304-1.026,0.304
		c-0.524,0-0.94-0.161-1.247-0.484c-0.307-0.322-0.461-0.775-0.461-1.358c0-0.603,0.155-1.07,0.466-1.403s0.713-0.499,1.208-0.499
		c0.479,0,0.871,0.163,1.174,0.489s0.456,0.785,0.456,1.376c0,0.036-0.001,0.09-0.003,0.162h-2.672
		c0.022,0.394,0.134,0.695,0.334,0.904s0.45,0.314,0.749,0.314c0.223,0,0.413-0.059,0.57-0.176
		C61.519,24.169,61.644,23.982,61.736,23.726z M59.742,22.744h2.001c-0.027-0.302-0.104-0.527-0.229-0.679
		c-0.193-0.233-0.444-0.351-0.752-0.351c-0.279,0-0.514,0.094-0.704,0.28S59.762,22.432,59.742,22.744z"/>
	<path fill="#6A6A6A" d="M63.119,24.88v-3.584h0.547v0.544c0.139-0.255,0.268-0.422,0.386-0.503s0.248-0.121,0.39-0.121
		c0.205,0,0.413,0.064,0.625,0.195l-0.209,0.563c-0.148-0.088-0.297-0.132-0.445-0.132c-0.133,0-0.252,0.04-0.358,0.12
		c-0.105,0.08-0.181,0.19-0.226,0.332c-0.067,0.216-0.101,0.452-0.101,0.709v1.876H63.119z"/>
	<path fill="#6A6A6A" d="M65.431,20.632v-0.698h0.607v0.698H65.431z M65.431,24.88v-3.584h0.607v3.584H65.431z"/>
	<path fill="#6A6A6A" d="M69.301,24.438c-0.225,0.191-0.441,0.326-0.649,0.405s-0.432,0.118-0.67,0.118
		c-0.394,0-0.696-0.097-0.908-0.289c-0.211-0.191-0.316-0.438-0.316-0.736c0-0.176,0.04-0.336,0.119-0.481
		c0.08-0.145,0.185-0.262,0.314-0.349c0.129-0.088,0.274-0.154,0.437-0.199c0.119-0.032,0.299-0.063,0.54-0.092
		c0.49-0.059,0.852-0.128,1.083-0.209c0.002-0.083,0.004-0.136,0.004-0.158c0-0.248-0.058-0.422-0.173-0.523
		c-0.155-0.137-0.386-0.206-0.691-0.206c-0.286,0-0.496,0.051-0.633,0.15c-0.136,0.101-0.236,0.277-0.302,0.531l-0.594-0.081
		c0.054-0.254,0.143-0.459,0.267-0.615c0.123-0.156,0.303-0.277,0.536-0.361c0.234-0.084,0.505-0.126,0.813-0.126
		c0.306,0,0.555,0.035,0.746,0.107c0.19,0.072,0.331,0.163,0.421,0.271c0.091,0.109,0.153,0.247,0.189,0.414
		c0.021,0.104,0.03,0.29,0.03,0.56v0.81c0,0.565,0.013,0.922,0.039,1.071c0.025,0.15,0.077,0.294,0.153,0.431h-0.635
		C69.359,24.754,69.318,24.606,69.301,24.438z M69.25,23.081c-0.221,0.09-0.551,0.167-0.992,0.229
		c-0.249,0.036-0.426,0.077-0.529,0.122s-0.184,0.11-0.24,0.197c-0.056,0.087-0.084,0.183-0.084,0.288
		c0,0.162,0.062,0.297,0.184,0.405c0.123,0.107,0.303,0.162,0.539,0.162c0.233,0,0.441-0.052,0.624-0.153
		c0.182-0.103,0.315-0.243,0.401-0.421c0.065-0.137,0.098-0.339,0.098-0.607V23.081z"/>
	<path fill="#6A6A6A" d="M70.793,24.88v-4.946H71.4v4.946H70.793z"/>
	<path fill="#6A6A6A" d="M77.089,24.296c-0.2,0.223-0.418,0.39-0.654,0.501s-0.492,0.167-0.767,0.167
		c-0.506,0-0.907-0.171-1.204-0.513c-0.241-0.278-0.361-0.591-0.361-0.935c0-0.306,0.099-0.582,0.295-0.828
		c0.197-0.246,0.491-0.463,0.883-0.649c-0.223-0.257-0.371-0.465-0.445-0.625c-0.074-0.159-0.111-0.313-0.111-0.462
		c0-0.297,0.116-0.555,0.349-0.774c0.233-0.22,0.526-0.329,0.88-0.329c0.337,0,0.613,0.104,0.828,0.311s0.322,0.455,0.322,0.746
		c0,0.47-0.312,0.871-0.935,1.204l0.887,1.131c0.102-0.198,0.181-0.428,0.236-0.688l0.631,0.135
		c-0.107,0.432-0.254,0.787-0.438,1.066c0.228,0.302,0.485,0.555,0.773,0.759l-0.409,0.482
		C77.603,24.837,77.35,24.604,77.089,24.296z M76.708,23.817l-1.114-1.381c-0.328,0.196-0.55,0.378-0.664,0.545
		c-0.115,0.168-0.173,0.334-0.173,0.498c0,0.2,0.08,0.408,0.24,0.624c0.159,0.216,0.386,0.324,0.678,0.324
		c0.183,0,0.371-0.057,0.565-0.171C76.435,24.144,76.591,23.997,76.708,23.817z M75.854,21.718c0.264-0.155,0.434-0.291,0.512-0.408
		c0.077-0.116,0.116-0.246,0.116-0.388c0-0.169-0.054-0.307-0.16-0.413c-0.107-0.107-0.24-0.16-0.4-0.16
		c-0.164,0-0.301,0.053-0.409,0.158c-0.109,0.105-0.164,0.235-0.164,0.388c0,0.077,0.02,0.157,0.06,0.241
		c0.039,0.085,0.098,0.174,0.177,0.269L75.854,21.718z"/>
	<path fill="#6A6A6A" d="M84.397,23.146l0.655,0.165c-0.138,0.538-0.385,0.948-0.741,1.23s-0.792,0.423-1.308,0.423
		c-0.533,0-0.967-0.108-1.301-0.325s-0.588-0.531-0.763-0.943c-0.174-0.411-0.262-0.854-0.262-1.326
		c0-0.515,0.099-0.964,0.296-1.348c0.196-0.384,0.477-0.675,0.84-0.874s0.764-0.299,1.2-0.299c0.494,0,0.91,0.126,1.248,0.378
		s0.572,0.606,0.705,1.063l-0.645,0.151c-0.114-0.359-0.281-0.622-0.499-0.786c-0.219-0.164-0.493-0.246-0.823-0.246
		c-0.381,0-0.698,0.091-0.953,0.273c-0.256,0.182-0.436,0.427-0.539,0.733c-0.104,0.308-0.154,0.624-0.154,0.95
		c0,0.421,0.061,0.788,0.184,1.102c0.122,0.313,0.313,0.548,0.571,0.703c0.259,0.155,0.539,0.233,0.841,0.233
		c0.366,0,0.677-0.105,0.932-0.317C84.136,23.876,84.308,23.562,84.397,23.146z"/>
	<path fill="#6A6A6A" d="M85.78,24.88v-4.946h0.607v1.774c0.284-0.328,0.642-0.492,1.073-0.492c0.266,0,0.496,0.052,0.692,0.156
		c0.195,0.104,0.335,0.249,0.42,0.434c0.084,0.185,0.126,0.452,0.126,0.804v2.271h-0.607v-2.271c0-0.304-0.065-0.525-0.197-0.663
		c-0.132-0.139-0.317-0.208-0.559-0.208c-0.18,0-0.349,0.047-0.508,0.14c-0.158,0.094-0.271,0.221-0.339,0.38
		c-0.067,0.16-0.102,0.381-0.102,0.661v1.961H85.78z"/>
	<path fill="#6A6A6A" d="M92.077,23.726l0.628,0.078c-0.099,0.366-0.282,0.651-0.55,0.854s-0.609,0.304-1.025,0.304
		c-0.524,0-0.94-0.161-1.247-0.484c-0.308-0.322-0.461-0.775-0.461-1.358c0-0.603,0.155-1.07,0.466-1.403s0.713-0.499,1.208-0.499
		c0.479,0,0.87,0.163,1.174,0.489s0.456,0.785,0.456,1.376c0,0.036-0.001,0.09-0.004,0.162H90.05
		c0.022,0.394,0.134,0.695,0.334,0.904s0.45,0.314,0.749,0.314c0.223,0,0.413-0.059,0.57-0.176S91.985,23.982,92.077,23.726z
		 M90.083,22.744h2.001c-0.026-0.302-0.104-0.527-0.229-0.679c-0.193-0.233-0.444-0.351-0.752-0.351
		c-0.279,0-0.514,0.094-0.704,0.28C90.209,22.182,90.104,22.432,90.083,22.744z"/>
	<path fill="#6A6A6A" d="M93.468,24.88v-3.584h0.544v0.503c0.112-0.175,0.262-0.316,0.448-0.423c0.188-0.107,0.399-0.16,0.638-0.16
		c0.266,0,0.483,0.055,0.653,0.165s0.29,0.265,0.359,0.462c0.283-0.418,0.652-0.627,1.106-0.627c0.355,0,0.629,0.098,0.82,0.295
		c0.191,0.196,0.287,0.5,0.287,0.909v2.46H97.72v-2.258c0-0.242-0.02-0.417-0.059-0.524c-0.04-0.106-0.111-0.192-0.215-0.258
		s-0.225-0.098-0.364-0.098c-0.252,0-0.461,0.083-0.628,0.251c-0.166,0.168-0.249,0.436-0.249,0.805v2.082h-0.607v-2.328
		c0-0.271-0.05-0.473-0.148-0.607c-0.1-0.135-0.262-0.202-0.486-0.202c-0.171,0-0.329,0.045-0.474,0.135
		c-0.146,0.09-0.251,0.222-0.315,0.395c-0.065,0.173-0.099,0.423-0.099,0.749v1.859H93.468z"/>
	<path fill="#6A6A6A" d="M99.228,20.632v-0.698h0.607v0.698H99.228z M99.228,24.88v-3.584h0.607v3.584H99.228z"/>
	<path fill="#6A6A6A" d="M103.099,23.567l0.598,0.077c-0.065,0.412-0.232,0.734-0.502,0.967c-0.269,0.233-0.599,0.35-0.99,0.35
		c-0.49,0-0.885-0.16-1.183-0.48c-0.298-0.321-0.447-0.78-0.447-1.379c0-0.387,0.064-0.726,0.192-1.016
		c0.129-0.29,0.323-0.508,0.586-0.653c0.262-0.145,0.547-0.217,0.855-0.217c0.389,0,0.707,0.098,0.955,0.295
		c0.247,0.196,0.405,0.477,0.476,0.839l-0.591,0.091c-0.056-0.241-0.155-0.422-0.299-0.543c-0.143-0.122-0.315-0.183-0.518-0.183
		c-0.306,0-0.555,0.109-0.746,0.329c-0.19,0.219-0.286,0.566-0.286,1.041c0,0.481,0.092,0.831,0.276,1.049
		c0.185,0.219,0.425,0.328,0.722,0.328c0.239,0,0.438-0.073,0.598-0.22S103.056,23.871,103.099,23.567z"/>
	<path fill="#6A6A6A" d="M106.554,24.438c-0.225,0.191-0.441,0.326-0.649,0.405s-0.432,0.118-0.67,0.118
		c-0.394,0-0.696-0.097-0.908-0.289c-0.211-0.191-0.316-0.438-0.316-0.736c0-0.176,0.04-0.336,0.119-0.481
		c0.08-0.145,0.185-0.262,0.314-0.349c0.129-0.088,0.274-0.154,0.437-0.199c0.119-0.032,0.299-0.063,0.54-0.092
		c0.49-0.059,0.852-0.128,1.083-0.209c0.002-0.083,0.004-0.136,0.004-0.158c0-0.248-0.058-0.422-0.173-0.523
		c-0.155-0.137-0.386-0.206-0.691-0.206c-0.286,0-0.496,0.051-0.633,0.15c-0.136,0.101-0.236,0.277-0.302,0.531l-0.594-0.081
		c0.054-0.254,0.143-0.459,0.267-0.615c0.123-0.156,0.303-0.277,0.536-0.361c0.234-0.084,0.505-0.126,0.813-0.126
		c0.306,0,0.555,0.035,0.746,0.107c0.19,0.072,0.331,0.163,0.421,0.271c0.091,0.109,0.153,0.247,0.189,0.414
		c0.021,0.104,0.03,0.29,0.03,0.56v0.81c0,0.565,0.013,0.922,0.039,1.071c0.025,0.15,0.077,0.294,0.153,0.431h-0.635
		C106.612,24.754,106.571,24.606,106.554,24.438z M106.503,23.081c-0.221,0.09-0.551,0.167-0.992,0.229
		c-0.249,0.036-0.426,0.077-0.529,0.122s-0.184,0.11-0.24,0.197c-0.056,0.087-0.084,0.183-0.084,0.288
		c0,0.162,0.062,0.297,0.184,0.405c0.123,0.107,0.303,0.162,0.539,0.162c0.233,0,0.441-0.052,0.624-0.153
		c0.182-0.103,0.315-0.243,0.401-0.421c0.065-0.137,0.098-0.339,0.098-0.607V23.081z"/>
	<path fill="#6A6A6A" d="M108.045,24.88v-4.946h0.607v4.946H108.045z"/>
	<path fill="#6A6A6A" d="M111.369,23.291l0.617-0.055c0.029,0.248,0.098,0.451,0.204,0.609c0.107,0.158,0.273,0.287,0.498,0.385
		s0.478,0.146,0.759,0.146c0.25,0,0.471-0.037,0.662-0.111c0.19-0.074,0.333-0.176,0.427-0.306c0.093-0.129,0.14-0.271,0.14-0.423
		c0-0.155-0.045-0.291-0.135-0.407c-0.09-0.115-0.238-0.213-0.445-0.291c-0.133-0.052-0.427-0.133-0.881-0.242
		c-0.454-0.108-0.772-0.212-0.955-0.309c-0.236-0.123-0.412-0.277-0.528-0.46c-0.115-0.184-0.174-0.389-0.174-0.616
		c0-0.25,0.071-0.483,0.213-0.7s0.349-0.382,0.621-0.494s0.574-0.169,0.907-0.169c0.367,0,0.69,0.06,0.971,0.178
		c0.28,0.117,0.495,0.291,0.646,0.521c0.151,0.229,0.232,0.489,0.243,0.78l-0.627,0.047c-0.034-0.313-0.148-0.549-0.343-0.709
		c-0.194-0.159-0.482-0.239-0.862-0.239c-0.396,0-0.685,0.072-0.865,0.218c-0.182,0.145-0.271,0.32-0.271,0.524
		c0,0.178,0.063,0.324,0.191,0.438c0.126,0.115,0.455,0.232,0.987,0.353c0.532,0.121,0.897,0.226,1.095,0.315
		c0.288,0.133,0.501,0.302,0.638,0.505c0.138,0.204,0.206,0.438,0.206,0.704c0,0.263-0.075,0.511-0.226,0.743
		c-0.151,0.233-0.367,0.414-0.649,0.544c-0.283,0.129-0.601,0.193-0.954,0.193c-0.447,0-0.822-0.064-1.125-0.195
		s-0.54-0.327-0.712-0.589S111.378,23.621,111.369,23.291z"/>
	<path fill="#6A6A6A" d="M118.462,23.567l0.598,0.077c-0.065,0.412-0.232,0.734-0.502,0.967c-0.269,0.233-0.599,0.35-0.99,0.35
		c-0.49,0-0.885-0.16-1.183-0.48c-0.298-0.321-0.447-0.78-0.447-1.379c0-0.387,0.064-0.726,0.192-1.016
		c0.129-0.29,0.323-0.508,0.586-0.653c0.262-0.145,0.547-0.217,0.855-0.217c0.389,0,0.707,0.098,0.955,0.295
		c0.247,0.196,0.405,0.477,0.476,0.839l-0.591,0.091c-0.056-0.241-0.155-0.422-0.299-0.543c-0.143-0.122-0.315-0.183-0.518-0.183
		c-0.306,0-0.555,0.109-0.746,0.329c-0.19,0.219-0.286,0.566-0.286,1.041c0,0.481,0.092,0.831,0.276,1.049
		c0.185,0.219,0.425,0.328,0.722,0.328c0.239,0,0.438-0.073,0.598-0.22S118.419,23.871,118.462,23.567z"/>
	<path fill="#6A6A6A" d="M119.582,20.632v-0.698h0.607v0.698H119.582z M119.582,24.88v-3.584h0.607v3.584H119.582z"/>
	<path fill="#6A6A6A" d="M123.566,23.726l0.628,0.078c-0.099,0.366-0.282,0.651-0.55,0.854s-0.609,0.304-1.025,0.304
		c-0.524,0-0.94-0.161-1.247-0.484c-0.308-0.322-0.461-0.775-0.461-1.358c0-0.603,0.155-1.07,0.466-1.403s0.713-0.499,1.208-0.499
		c0.479,0,0.87,0.163,1.174,0.489s0.456,0.785,0.456,1.376c0,0.036-0.001,0.09-0.004,0.162h-2.672
		c0.022,0.394,0.134,0.695,0.334,0.904s0.45,0.314,0.749,0.314c0.223,0,0.413-0.059,0.57-0.176S123.475,23.982,123.566,23.726z
		 M121.572,22.744h2.001c-0.026-0.302-0.104-0.527-0.229-0.679c-0.193-0.233-0.444-0.351-0.752-0.351
		c-0.279,0-0.514,0.094-0.704,0.28C121.698,22.182,121.593,22.432,121.572,22.744z"/>
	<path fill="#6A6A6A" d="M124.957,24.88v-3.584h0.547v0.51c0.264-0.394,0.644-0.59,1.141-0.59c0.216,0,0.415,0.038,0.596,0.116
		c0.181,0.077,0.316,0.179,0.406,0.305s0.153,0.276,0.189,0.449c0.022,0.112,0.033,0.31,0.033,0.591v2.203h-0.607V22.7
		c0-0.248-0.023-0.433-0.07-0.556c-0.047-0.122-0.131-0.22-0.252-0.293c-0.12-0.073-0.261-0.109-0.423-0.109
		c-0.259,0-0.482,0.082-0.67,0.246s-0.282,0.476-0.282,0.935v1.957H124.957z"/>
	<path fill="#6A6A6A" d="M131.139,23.567l0.598,0.077c-0.065,0.412-0.232,0.734-0.502,0.967c-0.269,0.233-0.599,0.35-0.99,0.35
		c-0.49,0-0.885-0.16-1.183-0.48c-0.298-0.321-0.447-0.78-0.447-1.379c0-0.387,0.064-0.726,0.192-1.016
		c0.129-0.29,0.323-0.508,0.586-0.653c0.262-0.145,0.547-0.217,0.855-0.217c0.389,0,0.707,0.098,0.955,0.295
		c0.247,0.196,0.405,0.477,0.476,0.839l-0.591,0.091c-0.056-0.241-0.155-0.422-0.299-0.543c-0.143-0.122-0.315-0.183-0.518-0.183
		c-0.306,0-0.555,0.109-0.746,0.329c-0.19,0.219-0.286,0.566-0.286,1.041c0,0.481,0.092,0.831,0.276,1.049
		c0.185,0.219,0.425,0.328,0.722,0.328c0.239,0,0.438-0.073,0.598-0.22S131.096,23.871,131.139,23.567z"/>
	<path fill="#6A6A6A" d="M134.708,23.726l0.628,0.078c-0.099,0.366-0.282,0.651-0.55,0.854s-0.609,0.304-1.025,0.304
		c-0.524,0-0.94-0.161-1.247-0.484c-0.308-0.322-0.461-0.775-0.461-1.358c0-0.603,0.155-1.07,0.466-1.403s0.713-0.499,1.208-0.499
		c0.479,0,0.87,0.163,1.174,0.489s0.456,0.785,0.456,1.376c0,0.036-0.001,0.09-0.004,0.162h-2.672
		c0.022,0.394,0.134,0.695,0.334,0.904s0.45,0.314,0.749,0.314c0.223,0,0.413-0.059,0.57-0.176S134.616,23.982,134.708,23.726z
		 M132.714,22.744h2.001c-0.026-0.302-0.104-0.527-0.229-0.679c-0.193-0.233-0.444-0.351-0.752-0.351
		c-0.279,0-0.514,0.094-0.704,0.28C132.84,22.182,132.734,22.432,132.714,22.744z"/>
	<path fill="#6A6A6A" d="M138.13,24.88v-4.946h3.338v0.583h-2.683v1.532h2.321v0.584h-2.321v2.247H138.13z"/>
	<path fill="#6A6A6A" d="M142.234,24.88v-3.584h0.546v0.544c0.14-0.255,0.269-0.422,0.387-0.503s0.248-0.121,0.39-0.121
		c0.205,0,0.413,0.064,0.624,0.195l-0.209,0.563c-0.148-0.088-0.297-0.132-0.445-0.132c-0.133,0-0.252,0.04-0.357,0.12
		c-0.106,0.08-0.182,0.19-0.227,0.332c-0.067,0.216-0.101,0.452-0.101,0.709v1.876H142.234z"/>
	<path fill="#6A6A6A" d="M146.88,24.438c-0.225,0.191-0.441,0.326-0.649,0.405s-0.432,0.118-0.67,0.118
		c-0.394,0-0.696-0.097-0.908-0.289c-0.211-0.191-0.316-0.438-0.316-0.736c0-0.176,0.04-0.336,0.119-0.481
		c0.08-0.145,0.185-0.262,0.314-0.349c0.129-0.088,0.274-0.154,0.437-0.199c0.119-0.032,0.299-0.063,0.54-0.092
		c0.49-0.059,0.852-0.128,1.083-0.209c0.002-0.083,0.004-0.136,0.004-0.158c0-0.248-0.058-0.422-0.173-0.523
		c-0.155-0.137-0.386-0.206-0.691-0.206c-0.286,0-0.496,0.051-0.633,0.15c-0.136,0.101-0.236,0.277-0.302,0.531l-0.594-0.081
		c0.054-0.254,0.143-0.459,0.267-0.615c0.123-0.156,0.303-0.277,0.536-0.361c0.234-0.084,0.505-0.126,0.813-0.126
		c0.306,0,0.555,0.035,0.746,0.107c0.19,0.072,0.331,0.163,0.421,0.271c0.091,0.109,0.153,0.247,0.189,0.414
		c0.021,0.104,0.03,0.29,0.03,0.56v0.81c0,0.565,0.013,0.922,0.039,1.071c0.025,0.15,0.077,0.294,0.153,0.431h-0.635
		C146.938,24.754,146.897,24.606,146.88,24.438z M146.829,23.081c-0.221,0.09-0.551,0.167-0.992,0.229
		c-0.249,0.036-0.426,0.077-0.529,0.122s-0.184,0.11-0.24,0.197c-0.056,0.087-0.084,0.183-0.084,0.288
		c0,0.162,0.062,0.297,0.184,0.405c0.123,0.107,0.303,0.162,0.539,0.162c0.233,0,0.441-0.052,0.624-0.153
		c0.182-0.103,0.315-0.243,0.401-0.421c0.065-0.137,0.098-0.339,0.098-0.607V23.081z"/>
	<path fill="#6A6A6A" d="M148.385,24.88v-3.584h0.544v0.503c0.112-0.175,0.262-0.316,0.448-0.423c0.188-0.107,0.399-0.16,0.638-0.16
		c0.266,0,0.483,0.055,0.653,0.165s0.29,0.265,0.359,0.462c0.283-0.418,0.652-0.627,1.106-0.627c0.355,0,0.629,0.098,0.82,0.295
		c0.191,0.196,0.287,0.5,0.287,0.909v2.46h-0.604v-2.258c0-0.242-0.02-0.417-0.059-0.524c-0.04-0.106-0.111-0.192-0.215-0.258
		s-0.225-0.098-0.364-0.098c-0.252,0-0.461,0.083-0.628,0.251c-0.166,0.168-0.249,0.436-0.249,0.805v2.082h-0.607v-2.328
		c0-0.271-0.05-0.473-0.148-0.607c-0.1-0.135-0.262-0.202-0.486-0.202c-0.171,0-0.329,0.045-0.474,0.135
		c-0.146,0.09-0.251,0.222-0.315,0.395c-0.065,0.173-0.099,0.423-0.099,0.749v1.859H148.385z"/>
	<path fill="#6A6A6A" d="M156.594,23.726l0.628,0.078c-0.099,0.366-0.282,0.651-0.55,0.854s-0.609,0.304-1.025,0.304
		c-0.524,0-0.94-0.161-1.247-0.484c-0.308-0.322-0.461-0.775-0.461-1.358c0-0.603,0.155-1.07,0.466-1.403s0.713-0.499,1.208-0.499
		c0.479,0,0.87,0.163,1.174,0.489s0.456,0.785,0.456,1.376c0,0.036-0.001,0.09-0.004,0.162h-2.672
		c0.022,0.394,0.134,0.695,0.334,0.904s0.45,0.314,0.749,0.314c0.223,0,0.413-0.059,0.57-0.176S156.502,23.982,156.594,23.726z
		 M154.6,22.744h2.001c-0.026-0.302-0.104-0.527-0.229-0.679c-0.193-0.233-0.444-0.351-0.752-0.351c-0.279,0-0.514,0.094-0.704,0.28
		C154.726,22.182,154.62,22.432,154.6,22.744z"/>
	<path fill="#6A6A6A" d="M158.646,24.88l-1.097-3.584h0.627l0.57,2.069l0.213,0.769c0.009-0.038,0.071-0.284,0.186-0.738l0.57-2.1
		h0.624l0.537,2.079l0.179,0.685l0.206-0.691l0.613-2.072h0.591l-1.12,3.584h-0.631l-0.57-2.146l-0.139-0.61l-0.726,2.757H158.646z"
		/>
	<path fill="#6A6A6A" d="M162.749,23.088c0-0.663,0.185-1.155,0.554-1.475c0.308-0.266,0.684-0.397,1.127-0.397
		c0.492,0,0.895,0.161,1.208,0.483c0.313,0.323,0.469,0.77,0.469,1.338c0,0.462-0.069,0.824-0.208,1.089
		c-0.138,0.264-0.339,0.47-0.604,0.615c-0.265,0.146-0.553,0.22-0.865,0.22c-0.502,0-0.907-0.161-1.217-0.482
		C162.903,24.156,162.749,23.693,162.749,23.088z M163.373,23.088c0,0.459,0.101,0.803,0.301,1.031s0.452,0.343,0.756,0.343
		c0.301,0,0.552-0.115,0.752-0.345s0.301-0.579,0.301-1.05c0-0.442-0.101-0.778-0.302-1.007c-0.202-0.229-0.452-0.343-0.751-0.343
		c-0.304,0-0.556,0.114-0.756,0.341C163.474,22.286,163.373,22.629,163.373,23.088z"/>
	<path fill="#6A6A6A" d="M166.813,24.88v-3.584h0.546v0.544c0.14-0.255,0.269-0.422,0.387-0.503s0.248-0.121,0.39-0.121
		c0.205,0,0.413,0.064,0.624,0.195l-0.209,0.563c-0.148-0.088-0.297-0.132-0.445-0.132c-0.133,0-0.252,0.04-0.357,0.12
		c-0.106,0.08-0.182,0.19-0.227,0.332c-0.067,0.216-0.101,0.452-0.101,0.709v1.876H166.813z"/>
	<path fill="#6A6A6A" d="M169.124,24.88v-4.946h0.607v2.82l1.438-1.458h0.786l-1.37,1.33l1.509,2.254h-0.749l-1.185-1.832
		l-0.429,0.411v1.421H169.124z"/>
</g>
<g>
</g>
<g>
</g>
<g>
</g>
<g>
</g>
<g>
</g>
<g>
</g>
</svg>
