<?xml version="1.0" encoding="utf-8"?>
<!-- Generator: Adobe Illustrator 16.0.0, SVG Export Plug-In . SVG Version: 6.00 Build 0)  -->
<!DOCTYPE svg PUBLIC "-//W3C//DTD SVG 1.1//EN" "http://www.w3.org/Graphics/SVG/1.1/DTD/svg11.dtd">
<svg version="1.1" xmlns="http://www.w3.org/2000/svg" xmlns:xlink="http://www.w3.org/1999/xlink" x="0px" y="0px"
	 width="500.599px" height="86.305px" viewBox="0 0 500.599 86.305" enable-background="new 0 0 500.599 86.305"
	 xml:space="preserve">
<g id="Layer_2" display="none">
	<rect display="inline" fill="#52B97F" width="500.599" height="86.305"/>
</g>
<g id="Layer_1">
	<polyline fill="#FFFFFF" points="69.86,15.249 87.177,61.399 80.648,79.733 64.622,31.796 	"/>
	<polyline fill="#E6E7E8" points="72.895,10.147 105.945,10.147 128.927,79.733 96.561,79.733 	"/>
	<path fill="#FFFFFF" d="M33.044,79.716l5.214-16.363c0,0-16.518-47.403-16.519-47.401C21.125,17.784,20.917,18.384,0,79.733"/>
	<polyline fill="#BCBEC0" points="24.295,10.147 57.386,10.147 80.648,79.733 48.375,79.733 	"/>
	<polyline fill="#E6E7E8" points="64.622,31.796 65.386,29.353 81.49,77.37 80.648,79.733 	"/>
	<g>
		<path fill="#FFFFFF" d="M153.657,58.444l-11.531-38.107v38.107h-9.176V11.709h17.048l8.203,27.972l8.629-27.972h17.101v46.735
			h-11.024V20.337L161.15,58.444H153.657z"/>
		<path fill="#FFFFFF" d="M216.207,11.709l14.631,46.735H219.07l-2.879-9.621h-15.11l-2.929,9.621h-9.599l14.98-46.735H216.207z
			 M203.707,40.195h9.902l-4.906-16.4L203.707,40.195z"/>
		<path fill="#FFFFFF" d="M273.566,29.103l-11.47,0.719c-0.16-6.596-2.733-9.895-7.72-9.895c-5.719,0-8.577,5.079-8.577,15.236
			c0,5.866,0.776,9.843,2.332,11.932c1.555,2.088,3.729,3.133,6.519,3.133c4.528,0,7.295-2.944,8.302-8.834l10.614,0.65
			c-0.685,5.593-2.768,9.844-6.248,12.754c-3.481,2.91-7.744,4.365-12.788,4.365c-6.187,0-11.213-2.134-15.082-6.402
			c-3.869-4.268-5.804-10.169-5.804-17.701c0-7.053,1.872-12.827,5.615-17.324c3.743-4.497,8.856-6.745,15.339-6.745
			C265.828,10.99,272.15,17.028,273.566,29.103z"/>
		<path fill="#FFFFFF" d="M312.153,21.981l-9.313,3.116c-1.253-3.698-3.905-5.547-7.958-5.547c-4.327,0-6.49,1.404-6.49,4.211
			c0,1.119,0.404,2.066,1.214,2.842c0.809,0.776,2.638,1.45,5.487,2.022c4.764,0.961,8.251,1.933,10.462,2.914
			c2.212,0.981,4.075,2.562,5.591,4.741c1.517,2.179,2.274,4.615,2.274,7.308c0,4.223-1.625,7.873-4.875,10.954
			s-8.067,4.621-14.452,4.621c-4.789,0-8.866-1.09-12.229-3.27c-3.364-2.18-5.582-5.415-6.653-9.706l10.135-2.294
			c1.139,4.359,4.306,6.539,9.499,6.539c2.506,0,4.373-0.484,5.604-1.455c1.229-0.97,1.845-2.128,1.845-3.476
			c0-1.369-0.559-2.431-1.675-3.184c-1.117-0.753-3.271-1.461-6.462-2.124c-5.949-1.233-10.188-2.918-12.72-5.052
			c-2.53-2.134-3.795-5.255-3.795-9.363c0-4.154,1.511-7.657,4.532-10.51c3.021-2.853,7.12-4.279,12.297-4.279
			C303.636,10.99,309.53,14.654,312.153,21.981z"/>
		<path fill="#FFFFFF" d="M330.299,10.75v10.203h-10.203V10.75H330.299z M330.299,23.864v34.581h-10.203V23.864H330.299z"/>
		<path fill="#FFFFFF" d="M359.873,58.444l-11.531-38.107v38.107h-9.176V11.709h17.048l8.203,27.972l8.629-27.972h17.101v46.735
			h-11.024V20.337l-11.756,38.107H359.873z"/>
		<path fill="#FFFFFF" d="M436.3,11.709v29.102c0,4.702-0.537,8.2-1.609,10.494c-1.073,2.294-3.054,4.177-5.94,5.649
			c-2.888,1.472-6.58,2.208-11.076,2.208c-4.497,0-8.075-0.662-10.733-1.985c-2.659-1.323-4.651-3.207-5.975-5.649
			c-1.324-2.442-1.986-6.015-1.986-10.717V11.709h11.881v29.102c0,2.512,0.211,4.36,0.634,5.547
			c0.422,1.187,1.267,2.129,2.533,2.824c1.267,0.697,2.825,1.045,4.674,1.045c2.054,0,3.726-0.343,5.016-1.027
			c1.289-0.685,2.146-1.592,2.568-2.722c0.422-1.13,0.633-3.019,0.633-5.667V11.709H436.3z"/>
		<path fill="#FFFFFF" d="M465.703,58.444l-11.531-38.107v38.107h-9.176V11.709h17.048l8.203,27.972l8.629-27.972h17.101v46.735
			h-11.024V20.337l-11.756,38.107H465.703z"/>
	</g>
	<g id="Material__x26__Chemical_Science_Framework_3_">
		<path fill="#FFFFFF" d="M132.792,79.733V65.247h2.886l3.429,10.257c0.316,0.955,0.547,1.67,0.692,2.145
			c0.165-0.527,0.421-1.301,0.771-2.322l3.469-10.079h2.579v14.486h-1.848V67.608l-4.209,12.125h-1.729l-4.189-12.332v12.332
			H132.792z"/>
		<path fill="#FFFFFF" d="M156.331,78.438c-0.659,0.561-1.293,0.956-1.902,1.187s-1.263,0.346-1.961,0.346
			c-1.153,0-2.039-0.282-2.658-0.845c-0.619-0.563-0.929-1.283-0.929-2.159c0-0.514,0.117-0.983,0.351-1.408s0.54-0.766,0.919-1.023
			c0.379-0.257,0.806-0.451,1.28-0.583c0.349-0.092,0.876-0.181,1.581-0.267c1.436-0.171,2.494-0.375,3.172-0.612
			c0.007-0.244,0.01-0.398,0.01-0.465c0-0.725-0.168-1.235-0.504-1.531c-0.455-0.402-1.13-0.603-2.025-0.603
			c-0.837,0-1.455,0.146-1.853,0.439s-0.693,0.812-0.884,1.557l-1.739-0.237c0.158-0.744,0.418-1.346,0.781-1.804
			s0.886-0.811,1.571-1.058c0.685-0.247,1.479-0.37,2.381-0.37c0.896,0,1.624,0.105,2.184,0.316s0.972,0.476,1.235,0.795
			c0.264,0.32,0.448,0.724,0.553,1.211c0.06,0.303,0.089,0.85,0.089,1.641v2.371c0,1.653,0.038,2.699,0.113,3.138
			s0.226,0.858,0.45,1.26h-1.858C156.502,79.364,156.384,78.933,156.331,78.438z M156.183,74.467
			c-0.646,0.264-1.614,0.487-2.905,0.672c-0.731,0.105-1.249,0.224-1.551,0.355c-0.303,0.132-0.537,0.324-0.702,0.578
			s-0.247,0.535-0.247,0.845c0,0.475,0.18,0.87,0.539,1.186c0.359,0.316,0.884,0.475,1.576,0.475c0.685,0,1.294-0.149,1.828-0.449
			s0.926-0.71,1.176-1.23c0.191-0.402,0.287-0.995,0.287-1.779V74.467z"/>
		<path fill="#FFFFFF" d="M164.622,78.143l0.257,1.571c-0.501,0.105-0.949,0.158-1.344,0.158c-0.646,0-1.146-0.103-1.502-0.307
			c-0.355-0.204-0.606-0.473-0.751-0.806c-0.145-0.332-0.217-1.032-0.217-2.1v-6.038h-1.304v-1.383h1.304v-2.6l1.769-1.066v3.666
			h1.789v1.383h-1.789v6.137c0,0.508,0.031,0.834,0.094,0.979c0.063,0.145,0.165,0.261,0.306,0.346
			c0.142,0.086,0.344,0.129,0.608,0.129C164.039,78.212,164.299,78.188,164.622,78.143z"/>
		<path fill="#FFFFFF" d="M173.545,76.354l1.838,0.228c-0.29,1.074-0.827,1.907-1.611,2.5c-0.784,0.593-1.785,0.89-3.004,0.89
			c-1.535,0-2.752-0.473-3.651-1.418c-0.899-0.945-1.349-2.271-1.349-3.978c0-1.766,0.455-3.136,1.364-4.111
			c0.909-0.975,2.088-1.462,3.538-1.462c1.403,0,2.549,0.478,3.439,1.433c0.889,0.955,1.334,2.3,1.334,4.032
			c0,0.105-0.003,0.264-0.01,0.474h-7.826c0.066,1.153,0.392,2.036,0.979,2.648c0.586,0.613,1.317,0.919,2.193,0.919
			c0.652,0,1.209-0.171,1.67-0.514C172.909,77.651,173.275,77.104,173.545,76.354z M167.705,73.479h5.86
			c-0.079-0.883-0.303-1.545-0.672-1.986c-0.566-0.686-1.301-1.028-2.204-1.028c-0.817,0-1.503,0.273-2.06,0.82
			C168.072,71.831,167.764,72.563,167.705,73.479z"/>
		<path fill="#FFFFFF" d="M177.597,79.733V69.239h1.601v1.591c0.409-0.744,0.786-1.235,1.131-1.473
			c0.346-0.237,0.727-0.355,1.142-0.355c0.599,0,1.208,0.191,1.828,0.573l-0.613,1.65c-0.435-0.257-0.87-0.386-1.304-0.386
			c-0.389,0-0.738,0.117-1.048,0.351c-0.31,0.234-0.53,0.559-0.662,0.974c-0.198,0.633-0.297,1.324-0.297,2.075v5.494H177.597z"/>
		<path fill="#FFFFFF" d="M184.365,67.292v-2.045h1.779v2.045H184.365z M184.365,79.733V69.239h1.779v10.494H184.365z"/>
		<path fill="#FFFFFF" d="M195.7,78.438c-0.659,0.561-1.293,0.956-1.902,1.187s-1.263,0.346-1.961,0.346
			c-1.153,0-2.039-0.282-2.658-0.845c-0.619-0.563-0.929-1.283-0.929-2.159c0-0.514,0.117-0.983,0.351-1.408s0.54-0.766,0.919-1.023
			c0.379-0.257,0.806-0.451,1.28-0.583c0.349-0.092,0.876-0.181,1.581-0.267c1.436-0.171,2.494-0.375,3.172-0.612
			c0.007-0.244,0.01-0.398,0.01-0.465c0-0.725-0.168-1.235-0.504-1.531c-0.455-0.402-1.13-0.603-2.025-0.603
			c-0.837,0-1.455,0.146-1.853,0.439s-0.693,0.812-0.884,1.557l-1.739-0.237c0.158-0.744,0.418-1.346,0.781-1.804
			s0.886-0.811,1.571-1.058c0.685-0.247,1.479-0.37,2.381-0.37c0.896,0,1.624,0.105,2.184,0.316s0.972,0.476,1.235,0.795
			c0.264,0.32,0.448,0.724,0.553,1.211c0.06,0.303,0.089,0.85,0.089,1.641v2.371c0,1.653,0.038,2.699,0.113,3.138
			s0.226,0.858,0.45,1.26h-1.858C195.871,79.364,195.752,78.933,195.7,78.438z M195.551,74.467
			c-0.646,0.264-1.614,0.487-2.905,0.672c-0.731,0.105-1.249,0.224-1.551,0.355c-0.303,0.132-0.537,0.324-0.702,0.578
			s-0.247,0.535-0.247,0.845c0,0.475,0.18,0.87,0.539,1.186c0.359,0.316,0.884,0.475,1.576,0.475c0.685,0,1.294-0.149,1.828-0.449
			s0.926-0.71,1.176-1.23c0.191-0.402,0.287-0.995,0.287-1.779V74.467z"/>
		<path fill="#FFFFFF" d="M200.067,79.733V65.247h1.779v14.486H200.067z"/>
		<path fill="#FFFFFF" d="M218.507,78.023c-0.587,0.652-1.226,1.142-1.917,1.468c-0.692,0.326-1.439,0.489-2.243,0.489
			c-1.482,0-2.658-0.501-3.528-1.502c-0.705-0.816-1.058-1.729-1.058-2.737c0-0.896,0.288-1.705,0.865-2.426
			c0.576-0.722,1.438-1.355,2.584-1.902c-0.652-0.751-1.087-1.36-1.305-1.828c-0.217-0.468-0.326-0.919-0.326-1.354
			c0-0.87,0.341-1.626,1.023-2.269c0.682-0.642,1.539-0.963,2.574-0.963c0.987,0,1.797,0.303,2.426,0.909
			c0.629,0.605,0.943,1.334,0.943,2.184c0,1.377-0.912,2.553-2.737,3.527l2.599,3.311c0.297-0.579,0.527-1.251,0.692-2.016
			l1.848,0.396c-0.316,1.265-0.744,2.306-1.284,3.122c0.665,0.883,1.419,1.624,2.263,2.224l-1.196,1.413
			C220.012,79.608,219.271,78.927,218.507,78.023z M217.39,76.621l-3.261-4.042c-0.962,0.573-1.61,1.105-1.946,1.596
			c-0.336,0.491-0.504,0.977-0.504,1.458c0,0.586,0.233,1.195,0.701,1.828c0.468,0.632,1.13,0.948,1.986,0.948
			c0.533,0,1.085-0.166,1.655-0.499C216.591,77.578,217.047,77.147,217.39,76.621z M214.89,70.475
			c0.771-0.455,1.27-0.854,1.497-1.196c0.228-0.342,0.341-0.721,0.341-1.136c0-0.494-0.156-0.898-0.469-1.211
			c-0.313-0.313-0.704-0.47-1.171-0.47c-0.481,0-0.882,0.155-1.201,0.465s-0.479,0.688-0.479,1.137c0,0.224,0.058,0.459,0.173,0.706
			s0.288,0.509,0.52,0.786L214.89,70.475z"/>
		<path fill="#FFFFFF" d="M239.911,74.654l1.917,0.484c-0.401,1.574-1.125,2.775-2.169,3.602c-1.044,0.827-2.32,1.24-3.829,1.24
			c-1.562,0-2.831-0.317-3.81-0.953s-1.723-1.557-2.233-2.763c-0.511-1.205-0.766-2.5-0.766-3.883c0-1.509,0.288-2.825,0.865-3.948
			c0.576-1.123,1.396-1.977,2.46-2.56S234.582,65,235.859,65c1.449,0,2.668,0.369,3.656,1.106c0.988,0.738,1.677,1.775,2.065,3.113
			l-1.887,0.444c-0.337-1.054-0.824-1.821-1.463-2.303c-0.639-0.48-1.442-0.722-2.411-0.722c-1.113,0-2.044,0.268-2.792,0.801
			c-0.747,0.534-1.272,1.25-1.576,2.149c-0.303,0.899-0.454,1.826-0.454,2.781c0,1.232,0.18,2.308,0.538,3.227
			c0.359,0.919,0.918,1.606,1.676,2.061c0.757,0.455,1.577,0.682,2.46,0.682c1.074,0,1.983-0.31,2.728-0.929
			S239.647,75.873,239.911,74.654z"/>
		<path fill="#FFFFFF" d="M243.962,79.733V65.247h1.778v5.197c0.83-0.962,1.878-1.442,3.143-1.442c0.777,0,1.453,0.153,2.026,0.459
			c0.573,0.307,0.982,0.73,1.229,1.271s0.371,1.324,0.371,2.352v6.65h-1.779v-6.65c0-0.89-0.192-1.536-0.577-1.941
			c-0.386-0.405-0.931-0.608-1.636-0.608c-0.527,0-1.022,0.137-1.487,0.41s-0.796,0.645-0.993,1.112s-0.297,1.113-0.297,1.937v5.741
			H243.962z"/>
		<path fill="#FFFFFF" d="M262.401,76.354l1.839,0.228c-0.29,1.074-0.827,1.907-1.611,2.5s-1.785,0.89-3.004,0.89
			c-1.535,0-2.752-0.473-3.651-1.418s-1.349-2.271-1.349-3.978c0-1.766,0.454-3.136,1.363-4.111
			c0.909-0.975,2.089-1.462,3.538-1.462c1.403,0,2.55,0.478,3.438,1.433c0.89,0.955,1.334,2.3,1.334,4.032
			c0,0.105-0.003,0.264-0.01,0.474h-7.826c0.065,1.153,0.392,2.036,0.979,2.648c0.586,0.613,1.317,0.919,2.193,0.919
			c0.652,0,1.209-0.171,1.67-0.514S262.131,77.104,262.401,76.354z M256.561,73.479h5.86c-0.079-0.883-0.304-1.545-0.672-1.986
			c-0.567-0.686-1.302-1.028-2.204-1.028c-0.816,0-1.504,0.273-2.061,0.82S256.621,72.563,256.561,73.479z"/>
		<path fill="#FFFFFF" d="M266.472,79.733V69.239h1.591v1.472c0.329-0.514,0.768-0.927,1.314-1.239
			c0.547-0.313,1.169-0.47,1.867-0.47c0.777,0,1.415,0.161,1.912,0.484c0.498,0.322,0.849,0.773,1.053,1.354
			c0.83-1.226,1.91-1.838,3.241-1.838c1.041,0,1.842,0.288,2.401,0.864c0.56,0.577,0.84,1.465,0.84,2.663v7.204h-1.769v-6.611
			c0-0.711-0.058-1.224-0.173-1.536s-0.325-0.564-0.628-0.756s-0.658-0.287-1.067-0.287c-0.737,0-1.351,0.246-1.838,0.736
			c-0.487,0.491-0.731,1.276-0.731,2.357v6.097h-1.778v-6.818c0-0.791-0.145-1.384-0.435-1.778c-0.29-0.396-0.765-0.594-1.423-0.594
			c-0.501,0-0.964,0.132-1.389,0.396s-0.733,0.649-0.924,1.156c-0.191,0.508-0.287,1.238-0.287,2.193v5.445H266.472z"/>
		<path fill="#FFFFFF" d="M283.34,67.292v-2.045h1.779v2.045H283.34z M283.34,79.733V69.239h1.779v10.494H283.34z"/>
		<path fill="#FFFFFF" d="M294.674,75.89l1.749,0.227c-0.19,1.206-0.68,2.149-1.467,2.832c-0.787,0.682-1.754,1.022-2.9,1.022
			c-1.437,0-2.591-0.47-3.464-1.408s-1.309-2.284-1.309-4.037c0-1.133,0.188-2.124,0.563-2.974c0.376-0.851,0.947-1.487,1.715-1.912
			c0.768-0.426,1.603-0.638,2.505-0.638c1.14,0,2.072,0.288,2.797,0.864c0.725,0.577,1.188,1.396,1.393,2.456l-1.729,0.267
			c-0.165-0.705-0.457-1.235-0.875-1.591s-0.924-0.534-1.517-0.534c-0.896,0-1.624,0.321-2.184,0.964
			c-0.561,0.643-0.84,1.658-0.84,3.049c0,1.409,0.27,2.434,0.81,3.073c0.54,0.639,1.245,0.958,2.115,0.958
			c0.698,0,1.281-0.214,1.749-0.642C294.253,77.438,294.549,76.778,294.674,75.89z"/>
		<path fill="#FFFFFF" d="M304.794,78.438c-0.658,0.561-1.293,0.956-1.902,1.187s-1.264,0.346-1.961,0.346
			c-1.154,0-2.039-0.282-2.659-0.845c-0.619-0.563-0.929-1.283-0.929-2.159c0-0.514,0.116-0.983,0.351-1.408
			c0.233-0.425,0.54-0.766,0.918-1.023c0.379-0.257,0.807-0.451,1.279-0.583c0.35-0.092,0.877-0.181,1.582-0.267
			c1.436-0.171,2.494-0.375,3.172-0.612c0.006-0.244,0.01-0.398,0.01-0.465c0-0.725-0.168-1.235-0.504-1.531
			c-0.455-0.402-1.129-0.603-2.025-0.603c-0.836,0-1.455,0.146-1.854,0.439s-0.693,0.812-0.885,1.557l-1.739-0.237
			c0.158-0.744,0.419-1.346,0.781-1.804c0.362-0.458,0.885-0.811,1.571-1.058s1.479-0.37,2.381-0.37
			c0.896,0,1.625,0.105,2.186,0.316c0.559,0.211,0.971,0.476,1.234,0.795c0.264,0.32,0.447,0.724,0.553,1.211
			c0.061,0.303,0.09,0.85,0.09,1.641v2.371c0,1.653,0.037,2.699,0.113,3.138s0.227,0.858,0.449,1.26h-1.857
			C304.966,79.364,304.847,78.933,304.794,78.438z M304.646,74.467c-0.646,0.264-1.613,0.487-2.904,0.672
			c-0.732,0.105-1.25,0.224-1.553,0.355s-0.537,0.324-0.701,0.578s-0.246,0.535-0.246,0.845c0,0.475,0.178,0.87,0.537,1.186
			c0.359,0.316,0.885,0.475,1.576,0.475c0.686,0,1.295-0.149,1.828-0.449s0.926-0.71,1.176-1.23
			c0.191-0.402,0.287-0.995,0.287-1.779V74.467z"/>
		<path fill="#FFFFFF" d="M309.161,79.733V65.247h1.779v14.486H309.161z"/>
		<path fill="#FFFFFF" d="M318.896,75.079l1.809-0.158c0.084,0.725,0.283,1.319,0.598,1.784c0.313,0.464,0.799,0.84,1.457,1.126
			c0.658,0.287,1.4,0.43,2.223,0.43c0.732,0,1.377-0.108,1.938-0.326c0.561-0.217,0.977-0.515,1.25-0.894s0.41-0.792,0.41-1.24
			c0-0.455-0.133-0.852-0.395-1.191c-0.264-0.339-0.699-0.624-1.305-0.854c-0.389-0.151-1.248-0.387-2.58-0.706
			c-1.33-0.32-2.262-0.621-2.797-0.904c-0.691-0.362-1.207-0.813-1.545-1.35c-0.34-0.536-0.51-1.138-0.51-1.803
			c0-0.731,0.207-1.415,0.623-2.051c0.414-0.636,1.021-1.118,1.818-1.447c0.797-0.33,1.682-0.494,2.658-0.494
			c1.072,0,2.02,0.173,2.84,0.519s1.451,0.854,1.893,1.526s0.68,1.434,0.711,2.283l-1.838,0.138
			c-0.098-0.915-0.432-1.606-1.002-2.074s-1.412-0.702-2.525-0.702c-1.16,0-2.004,0.213-2.535,0.638
			c-0.529,0.425-0.795,0.937-0.795,1.536c0,0.521,0.188,0.949,0.564,1.285c0.367,0.336,1.332,0.68,2.889,1.032
			c1.559,0.353,2.627,0.66,3.207,0.924c0.844,0.389,1.467,0.882,1.867,1.478c0.402,0.597,0.604,1.283,0.604,2.061
			c0,0.771-0.221,1.497-0.662,2.179s-1.076,1.212-1.902,1.591s-1.758,0.568-2.791,0.568c-1.311,0-2.41-0.191-3.295-0.573
			c-0.887-0.382-1.582-0.957-2.086-1.725C319.187,76.916,318.921,76.048,318.896,75.079z"/>
		<path fill="#FFFFFF" d="M339.665,75.89l1.75,0.227c-0.191,1.206-0.68,2.149-1.467,2.832c-0.787,0.682-1.754,1.022-2.9,1.022
			c-1.438,0-2.592-0.47-3.465-1.408s-1.309-2.284-1.309-4.037c0-1.133,0.188-2.124,0.563-2.974c0.377-0.851,0.947-1.487,1.715-1.912
			c0.768-0.426,1.604-0.638,2.506-0.638c1.139,0,2.072,0.288,2.797,0.864c0.725,0.577,1.188,1.396,1.393,2.456l-1.729,0.267
			c-0.166-0.705-0.457-1.235-0.875-1.591s-0.924-0.534-1.518-0.534c-0.896,0-1.623,0.321-2.184,0.964s-0.84,1.658-0.84,3.049
			c0,1.409,0.27,2.434,0.811,3.073c0.539,0.639,1.244,0.958,2.115,0.958c0.697,0,1.281-0.214,1.748-0.642
			C339.245,77.438,339.54,76.778,339.665,75.89z"/>
		<path fill="#FFFFFF" d="M342.946,67.292v-2.045h1.779v2.045H342.946z M342.946,79.733V69.239h1.779v10.494H342.946z"/>
		<path fill="#FFFFFF" d="M354.616,76.354l1.84,0.228c-0.291,1.074-0.828,1.907-1.611,2.5c-0.785,0.593-1.785,0.89-3.004,0.89
			c-1.535,0-2.752-0.473-3.652-1.418c-0.898-0.945-1.348-2.271-1.348-3.978c0-1.766,0.453-3.136,1.363-4.111
			c0.908-0.975,2.088-1.462,3.537-1.462c1.404,0,2.551,0.478,3.439,1.433s1.334,2.3,1.334,4.032c0,0.105-0.004,0.264-0.01,0.474
			h-7.826c0.064,1.153,0.391,2.036,0.979,2.648c0.586,0.613,1.316,0.919,2.193,0.919c0.652,0,1.209-0.171,1.67-0.514
			S354.347,77.104,354.616,76.354z M348.776,73.479h5.861c-0.08-0.883-0.305-1.545-0.672-1.986
			c-0.568-0.686-1.303-1.028-2.205-1.028c-0.816,0-1.504,0.273-2.061,0.82S348.837,72.563,348.776,73.479z"/>
		<path fill="#FFFFFF" d="M358.688,79.733V69.239h1.6v1.492c0.771-1.153,1.885-1.729,3.34-1.729c0.633,0,1.215,0.113,1.744,0.341
			c0.531,0.228,0.928,0.525,1.191,0.895s0.447,0.807,0.553,1.314c0.066,0.329,0.1,0.905,0.1,1.729v6.453h-1.779V73.35
			c0-0.725-0.068-1.267-0.207-1.625c-0.139-0.359-0.383-0.646-0.736-0.86c-0.352-0.214-0.766-0.321-1.24-0.321
			c-0.758,0-1.41,0.241-1.961,0.722c-0.551,0.481-0.826,1.394-0.826,2.737v5.731H358.688z"/>
		<path fill="#FFFFFF" d="M376.79,75.89l1.75,0.227c-0.191,1.206-0.68,2.149-1.467,2.832c-0.787,0.682-1.754,1.022-2.9,1.022
			c-1.438,0-2.592-0.47-3.465-1.408s-1.309-2.284-1.309-4.037c0-1.133,0.188-2.124,0.563-2.974c0.377-0.851,0.947-1.487,1.715-1.912
			c0.768-0.426,1.604-0.638,2.506-0.638c1.139,0,2.072,0.288,2.797,0.864c0.725,0.577,1.188,1.396,1.393,2.456l-1.729,0.267
			c-0.166-0.705-0.457-1.235-0.875-1.591s-0.924-0.534-1.518-0.534c-0.896,0-1.623,0.321-2.184,0.964s-0.84,1.658-0.84,3.049
			c0,1.409,0.27,2.434,0.811,3.073c0.539,0.639,1.244,0.958,2.115,0.958c0.697,0,1.281-0.214,1.748-0.642
			C376.37,77.438,376.665,76.778,376.79,75.89z"/>
		<path fill="#FFFFFF" d="M387.245,76.354l1.84,0.228c-0.291,1.074-0.828,1.907-1.611,2.5c-0.785,0.593-1.785,0.89-3.004,0.89
			c-1.535,0-2.752-0.473-3.652-1.418c-0.898-0.945-1.348-2.271-1.348-3.978c0-1.766,0.453-3.136,1.363-4.111
			c0.908-0.975,2.088-1.462,3.537-1.462c1.404,0,2.551,0.478,3.439,1.433s1.334,2.3,1.334,4.032c0,0.105-0.004,0.264-0.01,0.474
			h-7.826c0.064,1.153,0.391,2.036,0.979,2.648c0.586,0.613,1.316,0.919,2.193,0.919c0.652,0,1.209-0.171,1.67-0.514
			S386.976,77.104,387.245,76.354z M381.405,73.479h5.861c-0.08-0.883-0.305-1.545-0.672-1.986
			c-0.568-0.686-1.303-1.028-2.205-1.028c-0.816,0-1.504,0.273-2.061,0.82S381.466,72.563,381.405,73.479z"/>
		<path fill="#FFFFFF" d="M397.267,79.733V65.247h9.773v1.709h-7.857v4.486h6.799v1.71h-6.799v6.581H397.267z"/>
		<path fill="#FFFFFF" d="M409.282,79.733V69.239h1.602v1.591c0.408-0.744,0.785-1.235,1.131-1.473s0.727-0.355,1.141-0.355
			c0.6,0,1.209,0.191,1.828,0.573l-0.611,1.65c-0.436-0.257-0.869-0.386-1.305-0.386c-0.389,0-0.738,0.117-1.047,0.351
			c-0.311,0.234-0.531,0.559-0.662,0.974c-0.199,0.633-0.297,1.324-0.297,2.075v5.494H409.282z"/>
		<path fill="#FFFFFF" d="M422.89,78.438c-0.658,0.561-1.293,0.956-1.902,1.187s-1.264,0.346-1.961,0.346
			c-1.154,0-2.039-0.282-2.658-0.845c-0.619-0.563-0.93-1.283-0.93-2.159c0-0.514,0.117-0.983,0.352-1.408
			c0.232-0.425,0.539-0.766,0.918-1.023c0.379-0.257,0.807-0.451,1.279-0.583c0.35-0.092,0.877-0.181,1.582-0.267
			c1.436-0.171,2.494-0.375,3.172-0.612c0.006-0.244,0.01-0.398,0.01-0.465c0-0.725-0.168-1.235-0.504-1.531
			c-0.455-0.402-1.129-0.603-2.025-0.603c-0.836,0-1.455,0.146-1.854,0.439s-0.693,0.812-0.885,1.557l-1.738-0.237
			c0.158-0.744,0.418-1.346,0.781-1.804c0.361-0.458,0.885-0.811,1.57-1.058s1.479-0.37,2.381-0.37c0.896,0,1.625,0.105,2.186,0.316
			c0.559,0.211,0.971,0.476,1.234,0.795c0.264,0.32,0.447,0.724,0.553,1.211c0.061,0.303,0.09,0.85,0.09,1.641v2.371
			c0,1.653,0.037,2.699,0.113,3.138s0.227,0.858,0.449,1.26h-1.857C423.062,79.364,422.942,78.933,422.89,78.438z M422.741,74.467
			c-0.646,0.264-1.613,0.487-2.904,0.672c-0.732,0.105-1.25,0.224-1.553,0.355s-0.537,0.324-0.701,0.578s-0.246,0.535-0.246,0.845
			c0,0.475,0.178,0.87,0.537,1.186c0.359,0.316,0.885,0.475,1.576,0.475c0.686,0,1.295-0.149,1.828-0.449s0.926-0.71,1.176-1.23
			c0.191-0.402,0.287-0.995,0.287-1.779V74.467z"/>
		<path fill="#FFFFFF" d="M427.296,79.733V69.239h1.592v1.472c0.328-0.514,0.768-0.927,1.314-1.239
			c0.547-0.313,1.168-0.47,1.867-0.47c0.777,0,1.414,0.161,1.912,0.484c0.498,0.322,0.848,0.773,1.053,1.354
			c0.83-1.226,1.91-1.838,3.24-1.838c1.041,0,1.842,0.288,2.402,0.864c0.559,0.577,0.84,1.465,0.84,2.663v7.204h-1.77v-6.611
			c0-0.711-0.057-1.224-0.172-1.536s-0.326-0.564-0.629-0.756s-0.658-0.287-1.066-0.287c-0.738,0-1.352,0.246-1.838,0.736
			c-0.488,0.491-0.732,1.276-0.732,2.357v6.097h-1.777v-6.818c0-0.791-0.145-1.384-0.436-1.778
			c-0.289-0.396-0.764-0.594-1.422-0.594c-0.502,0-0.965,0.132-1.389,0.396c-0.426,0.264-0.734,0.649-0.924,1.156
			c-0.191,0.508-0.287,1.238-0.287,2.193v5.445H427.296z"/>
		<path fill="#FFFFFF" d="M451.339,76.354l1.838,0.228c-0.289,1.074-0.826,1.907-1.611,2.5c-0.783,0.593-1.785,0.89-3.004,0.89
			c-1.535,0-2.752-0.473-3.65-1.418c-0.9-0.945-1.35-2.271-1.35-3.978c0-1.766,0.455-3.136,1.363-4.111
			c0.91-0.975,2.09-1.462,3.539-1.462c1.402,0,2.549,0.478,3.438,1.433c0.891,0.955,1.334,2.3,1.334,4.032
			c0,0.105-0.002,0.264-0.01,0.474h-7.826c0.066,1.153,0.393,2.036,0.979,2.648c0.586,0.613,1.318,0.919,2.193,0.919
			c0.652,0,1.209-0.171,1.67-0.514S451.069,77.104,451.339,76.354z M445.499,73.479h5.859c-0.078-0.883-0.303-1.545-0.672-1.986
			c-0.566-0.686-1.301-1.028-2.203-1.028c-0.816,0-1.504,0.273-2.061,0.82S445.558,72.563,445.499,73.479z"/>
		<path fill="#FFFFFF" d="M457.347,79.733l-3.211-10.494h1.838l1.67,6.058l0.621,2.253c0.027-0.112,0.209-0.834,0.545-2.164
			l1.67-6.146h1.828l1.57,6.087l0.523,2.006l0.604-2.025l1.799-6.067h1.729l-3.281,10.494h-1.848l-1.67-6.285l-0.404-1.788
			l-2.125,8.073H457.347z"/>
		<path fill="#FFFFFF" d="M469.362,74.486c0-1.943,0.541-3.383,1.621-4.318c0.902-0.777,2.002-1.166,3.301-1.166
			c1.443,0,2.621,0.473,3.537,1.418s1.373,2.251,1.373,3.918c0,1.351-0.201,2.413-0.607,3.187c-0.404,0.774-0.994,1.376-1.768,1.804
			c-0.775,0.429-1.619,0.643-2.535,0.643c-1.469,0-2.656-0.471-3.563-1.413S469.362,76.259,469.362,74.486z M471.19,74.486
			c0,1.344,0.293,2.351,0.881,3.019c0.586,0.669,1.324,1.003,2.213,1.003c0.883,0,1.617-0.336,2.203-1.008s0.879-1.696,0.879-3.073
			c0-1.298-0.295-2.281-0.883-2.949c-0.59-0.669-1.324-1.003-2.199-1.003c-0.889,0-1.627,0.332-2.213,0.998
			C471.483,72.138,471.19,73.143,471.19,74.486z"/>
		<path fill="#FFFFFF" d="M481.261,79.733V69.239h1.6v1.591c0.408-0.744,0.787-1.235,1.133-1.473s0.725-0.355,1.141-0.355
			c0.6,0,1.209,0.191,1.828,0.573l-0.613,1.65c-0.434-0.257-0.869-0.386-1.305-0.386c-0.389,0-0.736,0.117-1.047,0.351
			c-0.309,0.234-0.529,0.559-0.662,0.974c-0.197,0.633-0.297,1.324-0.297,2.075v5.494H481.261z"/>
		<path fill="#FFFFFF" d="M488.028,79.733V65.247h1.779v8.261l4.209-4.269h2.303l-4.012,3.894l4.418,6.601h-2.195l-3.467-5.366
			l-1.256,1.206v4.16H488.028z"/>
	</g>
	<g>
	</g>
	<g>
	</g>
	<g>
	</g>
	<g>
	</g>
	<g>
	</g>
	<g>
	</g>
</g>
</svg>
