<?xml version="1.0" encoding="utf-8"?>
<!-- Generator: Adobe Illustrator 16.0.0, SVG Export Plug-In . SVG Version: 6.00 Build 0)  -->
<!DOCTYPE svg PUBLIC "-//W3C//DTD SVG 1.1//EN" "http://www.w3.org/Graphics/SVG/1.1/DTD/svg11.dtd">
<svg version="1.1" id="Layer_1" xmlns="http://www.w3.org/2000/svg" xmlns:xlink="http://www.w3.org/1999/xlink" x="0px" y="0px"
	 width="380px" height="80px" viewBox="0 0 380 80" enable-background="new 0 0 380 80" xml:space="preserve">
<polyline fill="#3C83C5" points="70.7,14.397 87.978,60.442 81.464,78.734 65.475,30.907 "/>
<polyline fill="#72B3E2" points="73.728,9.307 106.702,9.307 129.632,78.734 97.34,78.734 "/>
<path fill="#1F3364" d="M33.968,78.717l5.202-16.326c0,0-16.48-47.294-16.481-47.292C22.077,16.926,21.87,17.525,1,78.734"/>
<polyline fill="#2B67B1" points="25.239,9.307 58.254,9.307 81.464,78.734 49.265,78.734 "/>
<polyline fill="#3574BA" points="65.475,30.907 66.237,28.469 82.303,76.377 81.464,78.734 "/>
<g>
	<path fill="#1F3364" d="M146.126,38.671l-7.791-25.747v25.747h-6.2V7.095h11.519l5.542,18.899l5.83-18.899h11.554v31.576h-7.449
		V12.924l-7.942,25.747H146.126z"/>
	<path fill="#1F3364" d="M188.388,7.095l9.884,31.576h-7.949l-1.945-6.5h-10.209l-1.979,6.5h-6.485l10.121-31.576H188.388z
		 M179.942,26.341h6.69l-3.316-11.081L179.942,26.341z"/>
	<path fill="#1F3364" d="M227.141,18.846l-7.749,0.486c-0.108-4.457-1.847-6.685-5.216-6.685c-3.863,0-5.795,3.432-5.795,10.294
		c0,3.963,0.524,6.65,1.575,8.062s2.52,2.117,4.404,2.117c3.06,0,4.93-1.989,5.609-5.968l7.171,0.439
		c-0.462,3.779-1.87,6.651-4.222,8.617c-2.352,1.966-5.231,2.949-8.64,2.949c-4.18,0-7.576-1.442-10.189-4.326
		c-2.614-2.884-3.921-6.871-3.921-11.959c0-4.766,1.264-8.667,3.793-11.705s5.983-4.557,10.363-4.557
		C221.913,6.609,226.185,10.688,227.141,18.846z"/>
	<path fill="#1F3364" d="M253.212,14.035l-6.292,2.105c-0.847-2.498-2.64-3.747-5.378-3.747c-2.923,0-4.385,0.948-4.385,2.845
		c0,0.756,0.273,1.396,0.82,1.92c0.547,0.524,1.782,0.98,3.708,1.366c3.218,0.649,5.574,1.306,7.068,1.969
		c1.494,0.663,2.753,1.73,3.777,3.203s1.536,3.118,1.536,4.938c0,2.853-1.098,5.319-3.293,7.401
		c-2.196,2.082-5.451,3.122-9.766,3.122c-3.235,0-5.989-0.736-8.263-2.209c-2.272-1.473-3.771-3.659-4.494-6.558l6.847-1.55
		c0.77,2.945,2.909,4.418,6.418,4.418c1.693,0,2.955-0.327,3.786-0.983c0.831-0.655,1.247-1.438,1.247-2.348
		c0-0.925-0.378-1.642-1.133-2.151c-0.754-0.509-2.21-0.987-4.365-1.435c-4.02-0.833-6.884-1.972-8.594-3.414
		c-1.71-1.441-2.563-3.55-2.563-6.326c0-2.806,1.02-5.173,3.062-7.101c2.041-1.927,4.811-2.891,8.308-2.891
		C247.457,6.609,251.439,9.084,253.212,14.035z"/>
	<path fill="#72B3E2" d="M265.472,6.447v6.894h-6.893V6.447H265.472z M265.472,15.307v23.364h-6.893V15.307H265.472z"/>
	<path fill="#72B3E2" d="M285.453,38.671l-7.791-25.747v25.747h-6.199V7.095h11.519l5.542,18.899l5.83-18.899h11.554v31.576h-7.448
		V12.924l-7.943,25.747H285.453z"/>
	<path fill="#72B3E2" d="M337.09,7.095v19.663c0,3.177-0.362,5.54-1.087,7.09c-0.726,1.55-2.063,2.822-4.014,3.817
		s-4.445,1.492-7.483,1.492s-5.456-0.448-7.252-1.342c-1.797-0.894-3.143-2.167-4.037-3.817c-0.895-1.65-1.341-4.063-1.341-7.24
		V7.095h8.026v19.663c0,1.696,0.143,2.946,0.428,3.748s0.856,1.438,1.712,1.908c0.856,0.471,1.909,0.706,3.158,0.706
		c1.388,0,2.518-0.231,3.389-0.694c0.871-0.463,1.449-1.076,1.734-1.839c0.285-0.763,0.429-2.039,0.429-3.828V7.095H337.09z"/>
	<path fill="#72B3E2" d="M356.956,38.671l-7.791-25.747v25.747h-6.199V7.095h11.519l5.542,18.899l5.83-18.899h11.554v31.576h-7.448
		V12.924l-7.943,25.747H356.956z"/>
</g>
<g id="Material__x26__Chemical_Science_Framework_3_" display="none">
	<path display="inline" fill="#696969" d="M260.894,62.185c0-3.409,0.947-5.935,2.843-7.575c1.583-1.363,3.513-2.045,5.789-2.045
		c2.531,0,4.6,0.829,6.206,2.487s2.409,3.949,2.409,6.872c0,2.369-0.355,4.233-1.065,5.591c-0.711,1.357-1.745,2.412-3.104,3.163
		c-1.357,0.751-2.84,1.127-4.446,1.127c-2.576,0-4.659-0.826-6.248-2.479C261.688,67.674,260.894,65.293,260.894,62.185z
		 M264.101,62.185c0,2.357,0.514,4.122,1.542,5.295c1.029,1.174,2.323,1.76,3.883,1.76c1.549,0,2.837-0.589,3.866-1.769
		c1.028-1.178,1.542-2.975,1.542-5.391c0-2.276-0.517-4.001-1.551-5.174s-2.32-1.76-3.857-1.76c-1.56,0-2.854,0.584-3.883,1.751
		C264.614,58.064,264.101,59.827,264.101,62.185z"/>
	<path display="inline" fill="#696969" d="M281.764,71.389V52.98h2.808v2.79c0.717-1.306,1.378-2.167,1.985-2.583
		c0.606-0.416,1.273-0.623,2.002-0.623c1.051,0,2.12,0.335,3.206,1.005l-1.074,2.895c-0.763-0.45-1.525-0.676-2.288-0.676
		c-0.682,0-1.294,0.205-1.837,0.615c-0.544,0.41-0.931,0.979-1.162,1.708c-0.347,1.109-0.52,2.322-0.52,3.64v9.638H281.764z"/>
	<path display="inline" fill="#696969" d="M293.638,71.389V45.977h3.12v14.492l7.384-7.488h4.039l-7.037,6.829l7.748,11.579h-3.848
		l-6.085-9.412l-2.201,2.114v7.298H293.638z"/>
</g>
<g>
	<path fill="#696969" d="M140.983,64.939c1.219-0.031,2.297-0.055,3.234-0.07v-1.055h-3.68v4.594h-2.602
		c1.031,0.641,6.617,0.828,16.758,0.563c-0.313,0.719-0.656,1.641-1.031,2.766c-3.734-0.016-7.703-0.031-11.906-0.047
		c-3.125,0-5.328-0.719-6.609-2.156c-0.422,0.469-1.273,1.352-2.555,2.648l-1.359-3.258c0.672-0.5,1.445-1.078,2.32-1.734v-7.336
		h-2.156v-2.977h5.016v10.359c0.391,0.516,0.859,0.891,1.406,1.125v-6.703h6.398v-0.844h-5.508v-7.57h13.594v7.57h-5.508v0.844
		h6.773v4.828c0,1.422-0.898,2.141-2.695,2.156c-0.578,0.031-1.406,0.031-2.484,0c-0.016,0-0.117-0.555-0.305-1.664
		c0.234,0.031,0.859,0.047,1.875,0.047c0.609,0.016,0.906-0.227,0.891-0.727v-2.484h-1.336c0.344,0.922,0.656,1.813,0.938,2.672
		l-1.453,0.422c-0.047-0.141-0.086-0.273-0.117-0.398c-1.953,0.141-4.453,0.328-7.5,0.563L140.983,64.939z M134.21,49.213
		c0.891,1.125,1.813,2.422,2.766,3.891l-2.648,1.734c-0.656-1.141-1.484-2.469-2.484-3.984L134.21,49.213z M147.241,48.979h2.719
		v0.961h4.078v2.156h-4.078v0.891h-2.719v-0.891h-3.164v0.891h-2.742v-0.891h-3.891v-2.156h3.891v-0.961h2.742v0.961h3.164V48.979z
		 M141.382,56.08h2.836v-0.914h-2.836V56.08z M141.382,58.916h2.836v-0.914h-2.836V58.916z M149.632,55.166h-2.836v0.914h2.836
		V55.166z M149.632,58.916v-0.914h-2.836v0.914H149.632z M148.038,64.143l1.102-0.328h-2.344v0.961
		c0.453-0.016,0.93-0.039,1.43-0.07C148.147,64.455,148.085,64.268,148.038,64.143z"/>
	<path fill="#696969" d="M157.413,55.986h7.547v-2.039h-9.234v-2.883h9.234v-2.18h3.563v2.18h9.352v2.883h-9.352v2.039h7.711V64.4
		h-4.992v3.141c0,0.828,0.398,1.242,1.195,1.242h0.867c0.641,0,1.061-0.156,1.26-0.469s0.412-1.344,0.639-3.094
		c1.328,0.578,2.422,1.008,3.281,1.289c-0.25,1.188-0.51,2.172-0.779,2.953s-0.693,1.34-1.271,1.676s-1.387,0.504-2.426,0.504
		h-2.859c-2.172,0-3.258-1.18-3.258-3.539V64.4h-2.871c-0.133,3.875-2.59,6.445-7.371,7.711c-0.484-0.719-1.273-1.695-2.367-2.93
		c4.156-0.953,6.242-2.547,6.258-4.781h-4.125V55.986z M172.835,61.564v-2.789h-12.023v2.789H172.835z"/>
	<path fill="#696969" d="M181.39,63.439l2.906,0.984c-0.781,2.266-1.531,4.25-2.25,5.953l-2.836-1.242
		C180.038,67.322,180.765,65.424,181.39,63.439z M181.319,49.893h19.125v12.094h-8.953c1.078,0.984,2.055,1.945,2.93,2.883
		l-2.391,2.086c-1.078-1.328-2.156-2.539-3.234-3.633l1.57-1.336h-9.047V49.893z M184.507,54.604h4.781v-2.039h-4.781V54.604z
		 M184.507,59.314h4.781v-2.039h-4.781V59.314z M194.819,65.479c1.281,0.594,2.359,1.063,3.234,1.406
		c-0.563,2.25-1.191,3.609-1.887,4.078s-1.504,0.703-2.426,0.703h-5.297c-2.344,0-3.516-1.078-3.516-3.234v-5.273h3.094v4.313
		c0,0.922,0.438,1.383,1.313,1.383h3.094c0.523,0,0.955-0.082,1.295-0.246s0.564-0.451,0.674-0.861S194.647,66.58,194.819,65.479z
		 M197.257,52.564h-4.781v2.039h4.781V52.564z M197.257,59.314v-2.039h-4.781v2.039H197.257z M200.327,63.158
		c0.734,1.719,1.492,3.594,2.273,5.625l-3.023,1.125c-0.719-2.125-1.438-4.016-2.156-5.672L200.327,63.158z"/>
	<path fill="#696969" d="M211.647,52.893h-2.484c-0.328,1.406-0.734,2.75-1.219,4.031h3.422v12.023h-3.773v1.852h-2.648v-7.688
		l-0.703,1.031c-0.313-1.406-0.719-2.633-1.219-3.68c1.453-2.141,2.492-4.664,3.117-7.57h-2.32v-2.625h7.828V52.893z
		 M208.788,66.346v-6.82h-1.195v6.82H208.788z M214.788,64.4c-0.109,1.766-0.289,3.75-0.539,5.953
		c-0.281-0.094-1.07-0.25-2.367-0.469c0.219-1.156,0.492-3.047,0.82-5.672L214.788,64.4z M222.241,63.439
		c0.25,1.141,0.5,2.273,0.75,3.398c0.078-1.422,0.133-2.641,0.164-3.656h-7.711v0.656h-2.953V49.729h13.125v2.391h-4.359v1.453h3.75
		v2.156h-3.75v1.453h3.75v2.156h-3.75v1.453h4.758c-0.094,3.234-0.203,5.703-0.328,7.406c-0.188,2.203-1.289,3.375-3.305,3.516
		c-0.703,0.047-1.922,0.078-3.656,0.094c-0.234-1.547-0.414-2.555-0.539-3.023c0.844,0.047,1.914,0.078,3.211,0.094
		c0.984,0.016,1.508-0.523,1.57-1.617l-1.617,0.375c-0.234-1.188-0.492-2.477-0.773-3.867L222.241,63.439z M215.444,53.572h2.953
		v-1.453h-2.953V53.572z M215.444,57.182h2.953v-1.453h-2.953V57.182z M215.444,60.791h2.953v-1.453h-2.953V60.791z M217.413,64.002
		c0.078,0.594,0.234,2.289,0.469,5.086l-2.086,0.281c-0.063-2.578-0.133-4.32-0.211-5.227L217.413,64.002z M219.851,63.768
		c0.266,1.469,0.492,2.875,0.68,4.219l-1.828,0.398c-0.219-1.938-0.414-3.398-0.586-4.383L219.851,63.768z"/>
	<path fill="#696969" d="M228.194,64.623c0-0.884,0.321-1.646,0.964-2.287c0.643-0.64,1.403-0.96,2.283-0.96
		c0.884,0,1.648,0.321,2.294,0.964c0.645,0.643,0.967,1.403,0.967,2.283c0,0.866-0.321,1.625-0.964,2.276s-1.401,0.978-2.276,0.978
		c-0.894,0-1.661-0.318-2.304-0.953C228.516,66.287,228.194,65.521,228.194,64.623z"/>
	<path fill="#696969" d="M256.101,60.229c0.219,0.359,0.586,0.977,1.102,1.852h2.016v2.203h-2.953l1.195,1.148
		c1.063,0.578,1.805,0.953,2.227,1.125c-0.313,1.719-0.648,2.961-1.008,3.727c-0.531,1.125-1.313,1.695-2.344,1.711
		c-1.375-0.016-2.531-0.695-3.469-2.039c-0.906,0.703-1.844,1.328-2.813,1.875l-1.617-1.969c1.203-0.594,2.313-1.273,3.328-2.039
		c-0.438-1.203-0.727-2.383-0.867-3.539h-3.211c-0.016,0.375-0.047,0.734-0.094,1.078c1.172,0.453,2.336,0.906,3.492,1.359
		l-1.195,2.133c-0.766-0.422-1.664-0.898-2.695-1.43c-0.531,1.938-1.484,3.594-2.859,4.969c-0.625-0.828-1.219-1.555-1.781-2.18
		c1.5-1.578,2.352-3.555,2.555-5.93h-1.734V62.08h1.781v-0.938h2.555v0.938h2.883c-0.047-0.453-0.094-0.922-0.141-1.406
		l-1.453,0.375c-0.047-0.172-0.094-0.344-0.141-0.516c-2.016,0.125-3.586,0.242-4.711,0.352l-0.258-0.609l-1.055,2.109
		c-0.141-0.141-0.523-0.484-1.148-1.031v10.641h-2.625v-9.82c-0.531,1.594-1.156,3.063-1.875,4.406
		c-0.219-1.094-0.516-2.406-0.891-3.938c1.203-1.969,2.063-4.148,2.578-6.539h-2.203v-2.695h2.391v-4.406h2.625v4.406h1.641v0.773
		c0.719-0.797,1.742-2.398,3.07-4.805l2.109,1.031c-0.625,0.938-1.5,2.227-2.625,3.867c0.328,0,0.773,0,1.336,0
		c0.469-0.719,0.961-1.508,1.477-2.367l1.313,0.75c-0.016-1.078-0.031-2.297-0.047-3.656h2.672
		c0.078,5.75,0.281,10.109,0.609,13.078h1.734c-0.188-0.328-0.383-0.672-0.586-1.031L256.101,60.229z M245.812,56.244
		c-0.672,0.031-1.266,0.078-1.781,0.141l-0.703-1.594v1.313h-1.641v2.203c0.719,0.469,1.367,0.906,1.945,1.313l-0.258-0.68
		C244.108,58.314,244.921,57.416,245.812,56.244z M246.21,58.822c0.625-0.047,1.336-0.102,2.133-0.164
		c-0.203-0.625-0.406-1.203-0.609-1.734C247.218,57.58,246.71,58.213,246.21,58.822z M249.14,56.314
		c0.375,1.016,0.805,2.375,1.289,4.078c-0.188-1.953-0.32-4.172-0.398-6.656c-0.766,1.109-1.523,2.164-2.273,3.164L249.14,56.314z
		 M255.327,54.064c0.328,0,0.758,0,1.289,0c0.453-0.688,0.859-1.352,1.219-1.992l1.734,0.984c-1.156,1.766-2.469,3.531-3.938,5.297
		c0.422-0.016,0.992-0.039,1.711-0.07c-0.172-0.469-0.344-0.898-0.516-1.289l1.57-0.586c0.313,0.781,0.836,2.164,1.57,4.148
		l-1.641,0.586c-0.125-0.359-0.242-0.711-0.352-1.055c-2.078,0.078-3.492,0.164-4.242,0.258l-0.727-1.875
		c0.359-0.125,1.109-0.977,2.25-2.555c-0.563,0.031-1.109,0.078-1.641,0.141l-0.844-1.898c0.688-0.75,1.703-2.344,3.047-4.781
		l1.969,0.984C257.21,51.252,256.39,52.486,255.327,54.064z M253.546,64.283c0.094,0.469,0.227,1.031,0.398,1.688
		c0.531-0.531,1.031-1.094,1.5-1.688H253.546z M255.374,68.666c0.656,0.641,1.086,0.602,1.289-0.117
		c0.188-0.703,0.359-1.609,0.516-2.719c-0.703,0.844-1.445,1.633-2.227,2.367C255.093,68.369,255.233,68.525,255.374,68.666z"/>
	<path fill="#696969" d="M272.905,71.877v-7.594h4.875c-2.594-0.57-4.523-1.516-5.789-2.836c-1.078,1.297-3.168,2.242-6.27,2.836
		h5.355v7.641h-2.719v-0.891h-3.727v0.891h-2.719v-7.148c-0.336,0.031-0.68,0.055-1.031,0.07c-0.094-0.75-0.258-1.547-0.492-2.391
		c4.813-0.125,7.723-0.797,8.73-2.016h-8.426v-2.391h9.551c0.07-0.359,0.121-0.75,0.152-1.172h3.281
		c-0.039,0.414-0.094,0.805-0.164,1.172h3.164l-0.375-0.914l3-0.375l0.539,1.289h3.539v2.391h-9.223
		c1.664,1.289,4.832,1.969,9.504,2.039c-0.266,0.875-0.469,1.68-0.609,2.414c-0.328-0.008-0.648-0.023-0.961-0.047v7.078h-2.719
		v-0.891h-3.75v0.844H272.905z M261.913,49.916h9.188v6.609h-9.188V49.916z M268.358,66.674h-3.727v1.969h3.727V66.674z
		 M268.241,54.135v-1.828h-3.469v1.828H268.241z M272.929,49.916h9.164v6.609h-9.164V49.916z M279.374,66.674h-3.75v1.969h3.75
		V66.674z M279.233,54.135v-1.828h-3.422v1.828H279.233z"/>
	<path fill="#696969" d="M284.437,65.268h10.313v-0.281l2.766-1.453h-8.344V61.33h13.477v2.039l-3.445,1.898h8.391v2.484h-9.563
		v1.547c0,1.75-1.016,2.625-3.047,2.625c-1.594,0-2.977,0-4.148,0c-0.172-0.813-0.391-1.664-0.656-2.555
		c1.516,0.047,2.602,0.07,3.258,0.07c0.875,0,1.313-0.32,1.313-0.961v-0.727h-10.313V65.268z M284.671,62.83v-4.641h1.242v-8.203
		c1.953-0.266,3.844-0.578,5.672-0.938c0.25,0.703,0.523,1.484,0.82,2.344c-1.266,0.219-2.461,0.391-3.586,0.516v0.961h3.258v1.617
		h-3.258v1.031h3.258v1.594h-3.258v1.078h4.383c-0.313-0.453-0.672-0.945-1.078-1.477c0.672-0.313,1.344-0.664,2.016-1.055
		c-0.563-0.406-1.133-0.82-1.711-1.242l0.773-0.75c-0.297-0.391-0.625-0.805-0.984-1.242c0.609-0.281,1.234-0.617,1.875-1.008
		c-0.594-0.438-1.148-0.852-1.664-1.242l1.219-1.359l2.18,1.453c0.625-0.469,1.266-0.984,1.922-1.547l1.523,1.359
		c-0.578,0.469-1.148,0.922-1.711,1.359l1.641,1.078l-0.844,0.914c0.25,0.219,0.57,0.5,0.961,0.844
		c-0.578,0.5-1.148,0.969-1.711,1.406c0.578,0.375,1.18,0.766,1.805,1.172l-1.195,1.336h4.922v-1.102h-3.563v-1.57h3.563v-1.055
		h-3.563v-1.57h3.563v-1.125h-3.797v-2.133h6.703v8.555h1.125v4.641h-2.977v-2.484h-16.547v2.484H284.671z M295.851,56.9
		c-0.766,0.484-1.531,0.914-2.297,1.289h4.055C297.03,57.768,296.444,57.338,295.851,56.9z M295.851,54.51
		c0.406-0.297,0.813-0.602,1.219-0.914c-0.438-0.328-0.859-0.641-1.266-0.938c-0.484,0.297-0.961,0.586-1.43,0.867
		C294.858,53.838,295.351,54.166,295.851,54.51z"/>
	<path fill="#696969" d="M308.718,49.729h10.875v8.32h-2.953v-5.742h-7.922V49.729z M310.218,53.854l1.828-1.477
		c0.953,0.891,1.852,1.781,2.695,2.672l-1.664,1.313c1.047-0.297,1.977-0.57,2.789-0.82c0.063,1.188,0.133,2.008,0.211,2.461
		c-2.781,0.891-5.008,1.617-6.68,2.18l-0.68-2.648c1.406-0.359,2.68-0.695,3.82-1.008C311.804,55.604,311.03,54.713,310.218,53.854z
		 M311.015,72.088V60.486h5.133c0.313-0.906,0.563-1.68,0.75-2.32l3.281,0.844c-0.219,0.422-0.469,0.914-0.75,1.477h9.586v11.602
		h-3.188v-1.031h-11.625v1.031H311.015z M325.827,63.041h-11.625v1.617h11.625V63.041z M314.202,68.525h11.625v-1.617h-11.625
		V68.525z M320.976,53.83l1.852-1.453c0.828,0.688,1.711,1.523,2.648,2.508l-1.57,1.336c1.031-0.313,2.023-0.617,2.977-0.914
		c0.125,0.938,0.289,1.719,0.492,2.344c-2.344,0.734-4.477,1.469-6.398,2.203l-0.938-2.555c1.141-0.313,2.242-0.617,3.305-0.914
		C322.624,55.51,321.835,54.658,320.976,53.83z M320.483,49.729h10.266v9.914h-2.953v-7.336h-7.313V49.729z"/>
	<path fill="#696969" d="M332.671,61.541h9.539v-8.602h-8.508v-3.094h20.719v3.094h-8.648v8.602h9.68v3.094h-9.68v7.289h-3.563
		v-7.289h-9.539V61.541z M334.03,55.049l2.461-1.664c1.5,1.75,3.055,3.688,4.664,5.813l-2.836,1.875
		C336.741,58.682,335.312,56.674,334.03,55.049z M354.468,55.283c-1.656,1.984-3.406,3.938-5.25,5.859l-2.391-1.945
		c1.813-1.875,3.438-3.805,4.875-5.789L354.468,55.283z"/>
	<path fill="#696969" d="M373.288,51.697c2.406,2.344,4.633,4.648,6.68,6.914l-2.602,2.203l-1.828-2.156
		c-6.719,0.109-12.555,0.391-17.508,0.844l-1.242-2.766c3.078-1.906,6.125-4.609,9.141-8.109l3.07,1.664
		c-2.219,2.094-4.563,4.141-7.031,6.141l11.273-0.398l-2.391-2.625L373.288,51.697z M358.991,71.994V61.002h18.047v10.992h-3.188
		v-1.383h-11.672v1.383H358.991z M373.851,63.908h-11.672v3.797h11.672V63.908z"/>
</g>
<g>
</g>
<g>
</g>
<g>
</g>
<g>
</g>
<g>
</g>
<g>
</g>
</svg>
