<?xml version="1.0" encoding="utf-8"?>
<!-- Generator: Adobe Illustrator 16.0.0, SVG Export Plug-In . SVG Version: 6.00 Build 0)  -->
<!DOCTYPE svg PUBLIC "-//W3C//DTD SVG 1.1//EN" "http://www.w3.org/Graphics/SVG/1.1/DTD/svg11.dtd">
<svg version="1.1" id="Layer_1" xmlns="http://www.w3.org/2000/svg" xmlns:xlink="http://www.w3.org/1999/xlink" x="0px" y="0px"
	 width="380px" height="100px" viewBox="0 0 380 100" enable-background="new 0 0 380 100" xml:space="preserve">
<g>
	<path fill="#FFFFFF" d="M16.306,69.461c0,0.988-0.741,1.812-1.729,1.812H7c-0.988,0-1.729-0.823-1.729-1.812V15.355
		c0-0.906,0.741-1.729,1.729-1.729h21.658c13.506,0,20.588,8.729,20.588,19.023s-7.082,19.023-20.588,19.023H16.306V69.461z
		 M27.917,41.955c5.6,0,9.882-3.458,9.882-9.306c0-5.847-4.282-9.306-9.882-9.306H16.306v18.611H27.917z"/>
	<path fill="#FFFFFF" d="M50.975,86.096c-0.741-0.741-0.824-1.977-0.083-2.965l2.553-3.541c0.988-1.317,2.388-1.152,3.376-0.412
		c1.4,1.071,3.047,1.895,5.023,1.895c2.553,0,4.447-1.647,5.353-4.2l1.977-5.6h-3.706c-0.988,0-1.647-0.576-2.059-1.647
		L51.386,34.132c-0.329-1.317-0.165-2.553,1.729-2.553h8.482c0.988,0,1.564,0.823,1.812,1.729l8.647,28.33l8.153-28.33
		c0.247-0.906,0.906-1.729,2.141-1.729h7.823c1.565,0,2.059,0.988,1.482,2.553L77.327,78.52
		c-2.306,7.164-7.329,11.693-14.906,11.693C57.728,90.213,53.692,88.648,50.975,86.096z"/>
	<path fill="#FFFFFF" d="M100.055,40.473H94.62c-0.906,0-1.647-0.824-1.647-1.729v-5.436c0-0.988,0.741-1.729,1.647-1.729h5.435
		V20.544c0-0.988,0.741-1.729,1.729-1.729h7.247c0.906,0,1.647,0.741,1.647,1.729v11.035h11.529c0.906,0,1.729,0.741,1.729,1.729
		v5.436c0,0.906-0.824,1.729-1.729,1.729h-11.529V57.19c0,3.953,2.635,5.105,4.529,5.105c0.988,0,2.388-0.329,3.788-1.235
		c1.235-0.741,2.471-0.741,3.212,0.33l2.471,4.035c0.659,0.988,0.576,1.894-0.247,2.718c-2.553,2.553-6.588,3.952-11.2,3.952
		c-6.505,0-13.176-3.623-13.176-12.518V40.473z"/>
	<path fill="#FFFFFF" d="M159.511,50.52c0-6.259-3.458-10.294-9.635-10.294c-6.012,0-9.965,4.117-9.965,10.294v19.188
		c0,0.905-0.823,1.564-1.729,1.564h-7.247c-0.906,0-1.647-0.741-1.647-1.647V15.273c0-0.906,0.741-1.647,1.647-1.647h7.247
		c0.906,0,1.729,0.659,1.729,1.564v21.082c2.306-3.211,6.835-5.847,13.176-5.847c10.541,0,17.047,7.412,17.047,17.212v22.07
		c0,0.905-0.824,1.564-1.729,1.564h-7.165c-0.906,0-1.729-0.659-1.729-1.564V50.52z"/>
	<path fill="#FFFFFF" d="M196.897,30.426c11.858,0,21.329,9.141,21.329,21.082c0,11.776-9.471,20.918-21.329,20.918
		s-21.329-9.142-21.329-20.918C175.568,39.567,185.039,30.426,196.897,30.426z M196.897,62.543c6.177,0,10.623-4.94,10.623-11.117
		c0-6.176-4.446-11.118-10.623-11.118c-6.094,0-10.624,4.941-10.624,11.118C186.274,57.603,190.804,62.543,196.897,62.543z"/>
	<path fill="#FFFFFF" d="M254.295,50.52c0-6.259-3.459-10.294-9.635-10.294c-6.012,0-9.965,4.117-9.965,10.294v19.188
		c0,0.905-0.823,1.564-1.729,1.564h-7.247c-0.905,0-1.646-0.741-1.646-1.647V33.308c0-0.988,0.741-1.729,1.646-1.729h7.247
		c0.906,0,1.729,0.659,1.729,1.564v3.129c2.306-3.211,6.835-5.847,13.177-5.847c10.541,0,17.046,7.412,17.046,17.212v22.07
		c0,0.905-0.823,1.564-1.729,1.564h-7.165c-0.906,0-1.729-0.659-1.729-1.564V50.52z"/>
</g>
<path fill="#FFFFFF" d="M344.346,49.966c0.156,12.751-10.052,23.218-22.8,23.371c-12.748,0.157-23.208-10.053-23.367-22.803
	c-0.159-12.747,10.05-23.206,22.798-23.363C333.727,27.013,344.188,37.219,344.346,49.966z"/>
<path fill="none" stroke="#FFFFFF" stroke-width="10" stroke-miterlimit="10" d="M277.246,50.792
	c-0.299-24.306,19.166-44.257,43.476-44.556c24.307-0.298,44.253,19.162,44.557,43.472c0.297,24.307-19.167,44.257-43.475,44.554
	C297.496,94.564,277.545,75.103,277.246,50.792z"/>
<path fill="#FFFFFF" stroke="#FFFFFF" stroke-width="5" stroke-miterlimit="10" d="M296.354,27.472
	c0.083,6.807-5.37,12.396-12.178,12.479c-6.813,0.085-12.396-5.37-12.479-12.174c-0.085-6.811,5.363-12.398,12.174-12.482
	C290.682,15.213,296.27,20.664,296.354,27.472z"/>
<g>
</g>
<g>
</g>
<g>
</g>
<g>
</g>
<g>
</g>
<g>
</g>
</svg>
